G04 #@! TF.GenerationSoftware,KiCad,Pcbnew,(6.0.4)*
G04 #@! TF.CreationDate,2022-07-29T23:35:55-06:00*
G04 #@! TF.ProjectId,ESP32-Sprinkler-System,45535033-322d-4537-9072-696e6b6c6572,1*
G04 #@! TF.SameCoordinates,Original*
G04 #@! TF.FileFunction,Legend,Bot*
G04 #@! TF.FilePolarity,Positive*
%FSLAX46Y46*%
G04 Gerber Fmt 4.6, Leading zero omitted, Abs format (unit mm)*
G04 Created by KiCad (PCBNEW (6.0.4)) date 2022-07-29 23:35:55*
%MOMM*%
%LPD*%
G01*
G04 APERTURE LIST*
%ADD10R,1.600000X1.600000*%
%ADD11O,1.600000X1.600000*%
%ADD12C,1.600000*%
%ADD13R,2.100000X2.100000*%
%ADD14C,2.100000*%
%ADD15R,1.700000X1.700000*%
%ADD16O,1.700000X1.700000*%
%ADD17R,1.800000X1.800000*%
%ADD18C,1.800000*%
%ADD19R,2.400000X2.400000*%
%ADD20O,2.400000X2.400000*%
%ADD21C,2.362200*%
%ADD22R,2.000000X2.000000*%
%ADD23C,2.000000*%
%ADD24R,2.000000X1.905000*%
%ADD25O,2.000000X1.905000*%
%ADD26C,3.200000*%
%ADD27R,1.560000X1.560000*%
%ADD28C,1.560000*%
G04 APERTURE END LIST*
%LPC*%
D10*
X112610000Y-106680000D03*
D11*
X112610000Y-104140000D03*
X112610000Y-101600000D03*
X112610000Y-99060000D03*
X104990000Y-99060000D03*
X104990000Y-101600000D03*
X104990000Y-104140000D03*
X104990000Y-106680000D03*
D10*
X97380000Y-82640000D03*
D12*
X97380000Y-85140000D03*
D13*
X70710000Y-101770000D03*
X63090000Y-101770000D03*
D14*
X70710000Y-106850000D03*
X63090000Y-106850000D03*
D12*
X126590000Y-88990000D03*
D11*
X116430000Y-88990000D03*
D15*
X167156200Y-80263200D03*
D16*
X169696200Y-80263200D03*
X172236200Y-80263200D03*
X174776200Y-80263200D03*
X177316200Y-80263200D03*
X179856200Y-80263200D03*
X182396200Y-80263200D03*
D10*
X112610000Y-90250000D03*
D11*
X112610000Y-87710000D03*
X112610000Y-85170000D03*
X112610000Y-82630000D03*
X104990000Y-82630000D03*
X104990000Y-85170000D03*
X104990000Y-87710000D03*
X104990000Y-90250000D03*
D12*
X126590000Y-92720000D03*
D11*
X116430000Y-92720000D03*
D10*
X125320000Y-125820000D03*
D12*
X125320000Y-123320000D03*
D10*
X97380000Y-118200000D03*
D12*
X97380000Y-120700000D03*
X97380000Y-130900000D03*
D11*
X87220000Y-130900000D03*
D12*
X126590000Y-96530000D03*
D11*
X116430000Y-96530000D03*
D12*
X97380000Y-95340000D03*
D11*
X87220000Y-95340000D03*
D17*
X84680000Y-67400000D03*
D18*
X84680000Y-64860000D03*
D12*
X126590000Y-104150000D03*
D11*
X116430000Y-104150000D03*
D13*
X105080000Y-121107500D03*
X105080000Y-128727500D03*
D14*
X110160000Y-121107500D03*
X110160000Y-128727500D03*
D12*
X79600000Y-101690000D03*
D11*
X79600000Y-111850000D03*
D19*
X75790000Y-64860000D03*
D20*
X75790000Y-77560000D03*
D17*
X84680000Y-102960000D03*
D18*
X84680000Y-100420000D03*
D12*
X126590000Y-100420000D03*
D11*
X116430000Y-100420000D03*
D21*
X174091600Y-118150640D03*
X186588400Y-118150640D03*
X174091600Y-123149360D03*
X186588400Y-123149360D03*
D19*
X75790000Y-118200000D03*
D20*
X75790000Y-130900000D03*
D22*
X120230000Y-117610000D03*
D23*
X122770000Y-117610000D03*
X125310000Y-117610000D03*
D12*
X106270000Y-95340000D03*
X111270000Y-95340000D03*
D19*
X75790000Y-100420000D03*
D20*
X75790000Y-113120000D03*
D12*
X79600000Y-66130000D03*
D11*
X79600000Y-76290000D03*
D12*
X97380000Y-72480000D03*
D11*
X87220000Y-72480000D03*
D12*
X79600000Y-119470000D03*
D11*
X79600000Y-129630000D03*
D12*
X97380000Y-127090000D03*
D11*
X87220000Y-127090000D03*
D24*
X84355000Y-130900000D03*
D25*
X84355000Y-128360000D03*
X84355000Y-125820000D03*
D17*
X84680000Y-85180000D03*
D18*
X84680000Y-82640000D03*
D26*
X189000000Y-57000000D03*
D12*
X126590000Y-108040000D03*
D11*
X116430000Y-108040000D03*
D12*
X106310000Y-78830000D03*
X111310000Y-78830000D03*
D13*
X70710000Y-119550000D03*
X63090000Y-119550000D03*
D14*
X70710000Y-124630000D03*
X63090000Y-124630000D03*
D26*
X62000000Y-136000000D03*
X62000000Y-57000000D03*
D12*
X97380000Y-76290000D03*
D11*
X87220000Y-76290000D03*
D12*
X105000000Y-111890000D03*
X105000000Y-116890000D03*
X97380000Y-91530000D03*
D11*
X87220000Y-91530000D03*
D15*
X167216000Y-110350700D03*
D16*
X169756000Y-110350700D03*
X172296000Y-110350700D03*
X174836000Y-110350700D03*
X177376000Y-110350700D03*
X179916000Y-110350700D03*
X182456000Y-110350700D03*
D12*
X79600000Y-83910000D03*
D11*
X79600000Y-94070000D03*
D19*
X75790000Y-82640000D03*
D20*
X75790000Y-95340000D03*
D15*
X103730000Y-69940000D03*
D16*
X106270000Y-69940000D03*
X108810000Y-69940000D03*
X111350000Y-69940000D03*
D12*
X118970000Y-127050000D03*
X118970000Y-122050000D03*
D27*
X131035000Y-77485000D03*
D28*
X131035000Y-80025000D03*
X131035000Y-82565000D03*
X131035000Y-85105000D03*
X131035000Y-87645000D03*
X131035000Y-90185000D03*
X131035000Y-92725000D03*
X131035000Y-95265000D03*
X131035000Y-97805000D03*
X131035000Y-100345000D03*
X131035000Y-102885000D03*
X131035000Y-105425000D03*
X131035000Y-107965000D03*
X131035000Y-110505000D03*
X131035000Y-113045000D03*
X131035000Y-115585000D03*
X131035000Y-118125000D03*
X131035000Y-120665000D03*
X131035000Y-123205000D03*
X156435000Y-77485000D03*
X156435000Y-80025000D03*
X156435000Y-82565000D03*
X156435000Y-85105000D03*
X156435000Y-87645000D03*
X156435000Y-90185000D03*
X156435000Y-92725000D03*
X156435000Y-95265000D03*
X156435000Y-97805000D03*
X156435000Y-100345000D03*
X156435000Y-102885000D03*
X156435000Y-105425000D03*
X156435000Y-107965000D03*
X156435000Y-110505000D03*
X156435000Y-113045000D03*
X156435000Y-115585000D03*
X156435000Y-118125000D03*
X156435000Y-120665000D03*
X156435000Y-123205000D03*
D24*
X84680000Y-113120000D03*
D25*
X84680000Y-110580000D03*
X84680000Y-108040000D03*
D12*
X91030000Y-81410000D03*
X91030000Y-86410000D03*
D10*
X118970000Y-76290000D03*
D12*
X118970000Y-73790000D03*
D10*
X111350000Y-113120000D03*
D12*
X111350000Y-115620000D03*
D17*
X84680000Y-120740000D03*
D18*
X84680000Y-118200000D03*
D13*
X70710000Y-83910000D03*
X63090000Y-83910000D03*
D14*
X70710000Y-88990000D03*
X63090000Y-88990000D03*
D12*
X97380000Y-111850000D03*
D11*
X87220000Y-111850000D03*
D12*
X126590000Y-81290000D03*
D11*
X116430000Y-81290000D03*
D24*
X84680000Y-77560000D03*
D25*
X84680000Y-75020000D03*
X84680000Y-72480000D03*
D15*
X163420000Y-125820000D03*
D16*
X165960000Y-125820000D03*
X168500000Y-125820000D03*
D13*
X70710000Y-66130000D03*
X63090000Y-66130000D03*
D14*
X70710000Y-71210000D03*
X63090000Y-71210000D03*
D12*
X91030000Y-116970000D03*
X91030000Y-121970000D03*
X125320000Y-77520000D03*
X125320000Y-72520000D03*
X97380000Y-108040000D03*
D11*
X87220000Y-108040000D03*
D26*
X189000000Y-136000000D03*
D24*
X84680000Y-95340000D03*
D25*
X84680000Y-92800000D03*
X84680000Y-90260000D03*
D12*
X126590000Y-85180000D03*
D11*
X116430000Y-85180000D03*
M02*
