%FSLAX45Y45*%
G04 Gerber Fmt 4.5, Leading zero omitted, Abs format (unit mm)*
G04 Created by KiCad (PCBNEW (6.0.4)) date 2022-07-29 23:36:17*
%MOMM*%
%LPD*%
G01*
G04 APERTURE LIST*
%TA.AperFunction,Profile*%
%ADD10C,0.200000*%
%TD*%
%ADD11C,0.200000*%
%ADD12C,0.320000*%
G04 APERTURE END LIST*
D10*
X6200000Y-5300000D02*
G75*
G03*
X5800000Y-5700000I0J-400000D01*
G01*
X18900000Y-5300000D02*
X6200000Y-5300000D01*
X6200000Y-14000000D02*
X18900000Y-14000000D01*
X5800000Y-5700000D02*
X5800000Y-13600000D01*
X18900000Y-14000000D02*
G75*
G03*
X19300000Y-13600000I0J400000D01*
G01*
X19300000Y-13600000D02*
X19300000Y-5700000D01*
X5800000Y-13600000D02*
G75*
G03*
X6200000Y-14000000I400000J0D01*
G01*
X19300000Y-5700000D02*
G75*
G03*
X18900000Y-5300000I-400000J0D01*
G01*
D11*
D12*
X6040000Y-5540000D02*
X6360000Y-5860000D01*
X6360000Y-5540000D02*
X6040000Y-5860000D01*
X6040000Y-13440000D02*
X6360000Y-13760000D01*
X6360000Y-13440000D02*
X6040000Y-13760000D01*
X18740000Y-5540000D02*
X19060000Y-5860000D01*
X19060000Y-5540000D02*
X18740000Y-5860000D01*
X18740000Y-13440000D02*
X19060000Y-13760000D01*
X19060000Y-13440000D02*
X18740000Y-13760000D01*
D11*
X6047619Y-14320476D02*
X6047619Y-14120476D01*
X6095238Y-14120476D01*
X6123809Y-14130000D01*
X6142857Y-14149048D01*
X6152381Y-14168095D01*
X6161905Y-14206190D01*
X6161905Y-14234762D01*
X6152381Y-14272857D01*
X6142857Y-14291905D01*
X6123809Y-14310952D01*
X6095238Y-14320476D01*
X6047619Y-14320476D01*
X6247619Y-14320476D02*
X6247619Y-14187143D01*
X6247619Y-14225238D02*
X6257143Y-14206190D01*
X6266667Y-14196667D01*
X6285714Y-14187143D01*
X6304762Y-14187143D01*
X6371428Y-14320476D02*
X6371428Y-14187143D01*
X6371428Y-14120476D02*
X6361905Y-14130000D01*
X6371428Y-14139524D01*
X6380952Y-14130000D01*
X6371428Y-14120476D01*
X6371428Y-14139524D01*
X6495238Y-14320476D02*
X6476190Y-14310952D01*
X6466667Y-14291905D01*
X6466667Y-14120476D01*
X6600000Y-14320476D02*
X6580952Y-14310952D01*
X6571428Y-14291905D01*
X6571428Y-14120476D01*
X6828571Y-14320476D02*
X6828571Y-14120476D01*
X6895238Y-14263333D01*
X6961905Y-14120476D01*
X6961905Y-14320476D01*
X7142857Y-14320476D02*
X7142857Y-14215714D01*
X7133333Y-14196667D01*
X7114286Y-14187143D01*
X7076190Y-14187143D01*
X7057143Y-14196667D01*
X7142857Y-14310952D02*
X7123809Y-14320476D01*
X7076190Y-14320476D01*
X7057143Y-14310952D01*
X7047619Y-14291905D01*
X7047619Y-14272857D01*
X7057143Y-14253809D01*
X7076190Y-14244286D01*
X7123809Y-14244286D01*
X7142857Y-14234762D01*
X7238095Y-14187143D02*
X7238095Y-14387143D01*
X7238095Y-14196667D02*
X7257143Y-14187143D01*
X7295238Y-14187143D01*
X7314286Y-14196667D01*
X7323809Y-14206190D01*
X7333333Y-14225238D01*
X7333333Y-14282381D01*
X7323809Y-14301428D01*
X7314286Y-14310952D01*
X7295238Y-14320476D01*
X7257143Y-14320476D01*
X7238095Y-14310952D01*
X7419048Y-14301428D02*
X7428571Y-14310952D01*
X7419048Y-14320476D01*
X7409524Y-14310952D01*
X7419048Y-14301428D01*
X7419048Y-14320476D01*
X7419048Y-14196667D02*
X7428571Y-14206190D01*
X7419048Y-14215714D01*
X7409524Y-14206190D01*
X7419048Y-14196667D01*
X7419048Y-14215714D01*
X5590000Y-14550000D02*
X5790000Y-14750000D01*
X5790000Y-14550000D02*
X5590000Y-14750000D01*
X6028571Y-14540476D02*
X6152381Y-14540476D01*
X6085714Y-14616667D01*
X6114286Y-14616667D01*
X6133333Y-14626190D01*
X6142857Y-14635714D01*
X6152381Y-14654762D01*
X6152381Y-14702381D01*
X6142857Y-14721428D01*
X6133333Y-14730952D01*
X6114286Y-14740476D01*
X6057143Y-14740476D01*
X6038095Y-14730952D01*
X6028571Y-14721428D01*
X6238095Y-14721428D02*
X6247619Y-14730952D01*
X6238095Y-14740476D01*
X6228571Y-14730952D01*
X6238095Y-14721428D01*
X6238095Y-14740476D01*
X6323809Y-14559524D02*
X6333333Y-14550000D01*
X6352381Y-14540476D01*
X6400000Y-14540476D01*
X6419048Y-14550000D01*
X6428571Y-14559524D01*
X6438095Y-14578571D01*
X6438095Y-14597619D01*
X6428571Y-14626190D01*
X6314286Y-14740476D01*
X6438095Y-14740476D01*
X6561905Y-14540476D02*
X6580952Y-14540476D01*
X6600000Y-14550000D01*
X6609524Y-14559524D01*
X6619048Y-14578571D01*
X6628571Y-14616667D01*
X6628571Y-14664286D01*
X6619048Y-14702381D01*
X6609524Y-14721428D01*
X6600000Y-14730952D01*
X6580952Y-14740476D01*
X6561905Y-14740476D01*
X6542857Y-14730952D01*
X6533333Y-14721428D01*
X6523809Y-14702381D01*
X6514286Y-14664286D01*
X6514286Y-14616667D01*
X6523809Y-14578571D01*
X6533333Y-14559524D01*
X6542857Y-14550000D01*
X6561905Y-14540476D01*
X6752381Y-14540476D02*
X6771428Y-14540476D01*
X6790476Y-14550000D01*
X6800000Y-14559524D01*
X6809524Y-14578571D01*
X6819048Y-14616667D01*
X6819048Y-14664286D01*
X6809524Y-14702381D01*
X6800000Y-14721428D01*
X6790476Y-14730952D01*
X6771428Y-14740476D01*
X6752381Y-14740476D01*
X6733333Y-14730952D01*
X6723809Y-14721428D01*
X6714286Y-14702381D01*
X6704762Y-14664286D01*
X6704762Y-14616667D01*
X6714286Y-14578571D01*
X6723809Y-14559524D01*
X6733333Y-14550000D01*
X6752381Y-14540476D01*
X6904762Y-14740476D02*
X6904762Y-14607143D01*
X6904762Y-14626190D02*
X6914286Y-14616667D01*
X6933333Y-14607143D01*
X6961905Y-14607143D01*
X6980952Y-14616667D01*
X6990476Y-14635714D01*
X6990476Y-14740476D01*
X6990476Y-14635714D02*
X7000000Y-14616667D01*
X7019048Y-14607143D01*
X7047619Y-14607143D01*
X7066667Y-14616667D01*
X7076190Y-14635714D01*
X7076190Y-14740476D01*
X7171428Y-14740476D02*
X7171428Y-14607143D01*
X7171428Y-14626190D02*
X7180952Y-14616667D01*
X7200000Y-14607143D01*
X7228571Y-14607143D01*
X7247619Y-14616667D01*
X7257143Y-14635714D01*
X7257143Y-14740476D01*
X7257143Y-14635714D02*
X7266667Y-14616667D01*
X7285714Y-14607143D01*
X7314286Y-14607143D01*
X7333333Y-14616667D01*
X7342857Y-14635714D01*
X7342857Y-14740476D01*
X7733333Y-14530952D02*
X7561905Y-14788095D01*
X7990476Y-14540476D02*
X8009524Y-14540476D01*
X8028571Y-14550000D01*
X8038095Y-14559524D01*
X8047619Y-14578571D01*
X8057143Y-14616667D01*
X8057143Y-14664286D01*
X8047619Y-14702381D01*
X8038095Y-14721428D01*
X8028571Y-14730952D01*
X8009524Y-14740476D01*
X7990476Y-14740476D01*
X7971428Y-14730952D01*
X7961905Y-14721428D01*
X7952381Y-14702381D01*
X7942857Y-14664286D01*
X7942857Y-14616667D01*
X7952381Y-14578571D01*
X7961905Y-14559524D01*
X7971428Y-14550000D01*
X7990476Y-14540476D01*
X8142857Y-14721428D02*
X8152381Y-14730952D01*
X8142857Y-14740476D01*
X8133333Y-14730952D01*
X8142857Y-14721428D01*
X8142857Y-14740476D01*
X8342857Y-14740476D02*
X8228571Y-14740476D01*
X8285714Y-14740476D02*
X8285714Y-14540476D01*
X8266667Y-14569048D01*
X8247619Y-14588095D01*
X8228571Y-14597619D01*
X8419048Y-14559524D02*
X8428571Y-14550000D01*
X8447619Y-14540476D01*
X8495238Y-14540476D01*
X8514286Y-14550000D01*
X8523810Y-14559524D01*
X8533333Y-14578571D01*
X8533333Y-14597619D01*
X8523810Y-14626190D01*
X8409524Y-14740476D01*
X8533333Y-14740476D01*
X8704762Y-14540476D02*
X8666667Y-14540476D01*
X8647619Y-14550000D01*
X8638095Y-14559524D01*
X8619048Y-14588095D01*
X8609524Y-14626190D01*
X8609524Y-14702381D01*
X8619048Y-14721428D01*
X8628571Y-14730952D01*
X8647619Y-14740476D01*
X8685714Y-14740476D01*
X8704762Y-14730952D01*
X8714286Y-14721428D01*
X8723810Y-14702381D01*
X8723810Y-14654762D01*
X8714286Y-14635714D01*
X8704762Y-14626190D01*
X8685714Y-14616667D01*
X8647619Y-14616667D01*
X8628571Y-14626190D01*
X8619048Y-14635714D01*
X8609524Y-14654762D01*
X8847619Y-14540476D02*
X8866667Y-14540476D01*
X8885714Y-14550000D01*
X8895238Y-14559524D01*
X8904762Y-14578571D01*
X8914286Y-14616667D01*
X8914286Y-14664286D01*
X8904762Y-14702381D01*
X8895238Y-14721428D01*
X8885714Y-14730952D01*
X8866667Y-14740476D01*
X8847619Y-14740476D01*
X8828571Y-14730952D01*
X8819048Y-14721428D01*
X8809524Y-14702381D01*
X8800000Y-14664286D01*
X8800000Y-14616667D01*
X8809524Y-14578571D01*
X8819048Y-14559524D01*
X8828571Y-14550000D01*
X8847619Y-14540476D01*
X8990476Y-14540476D02*
X8990476Y-14578571D01*
X9066667Y-14540476D02*
X9066667Y-14578571D01*
X9361905Y-14816667D02*
X9352381Y-14807143D01*
X9333333Y-14778571D01*
X9323810Y-14759524D01*
X9314286Y-14730952D01*
X9304762Y-14683333D01*
X9304762Y-14645238D01*
X9314286Y-14597619D01*
X9323810Y-14569048D01*
X9333333Y-14550000D01*
X9352381Y-14521428D01*
X9361905Y-14511905D01*
X9523810Y-14607143D02*
X9523810Y-14740476D01*
X9476190Y-14530952D02*
X9428571Y-14673809D01*
X9552381Y-14673809D01*
X9780952Y-14740476D02*
X9780952Y-14540476D01*
X9866667Y-14740476D02*
X9866667Y-14635714D01*
X9857143Y-14616667D01*
X9838095Y-14607143D01*
X9809524Y-14607143D01*
X9790476Y-14616667D01*
X9780952Y-14626190D01*
X9990476Y-14740476D02*
X9971429Y-14730952D01*
X9961905Y-14721428D01*
X9952381Y-14702381D01*
X9952381Y-14645238D01*
X9961905Y-14626190D01*
X9971429Y-14616667D01*
X9990476Y-14607143D01*
X10019048Y-14607143D01*
X10038095Y-14616667D01*
X10047619Y-14626190D01*
X10057143Y-14645238D01*
X10057143Y-14702381D01*
X10047619Y-14721428D01*
X10038095Y-14730952D01*
X10019048Y-14740476D01*
X9990476Y-14740476D01*
X10171429Y-14740476D02*
X10152381Y-14730952D01*
X10142857Y-14711905D01*
X10142857Y-14540476D01*
X10323810Y-14730952D02*
X10304762Y-14740476D01*
X10266667Y-14740476D01*
X10247619Y-14730952D01*
X10238095Y-14711905D01*
X10238095Y-14635714D01*
X10247619Y-14616667D01*
X10266667Y-14607143D01*
X10304762Y-14607143D01*
X10323810Y-14616667D01*
X10333333Y-14635714D01*
X10333333Y-14654762D01*
X10238095Y-14673809D01*
X10409524Y-14730952D02*
X10428571Y-14740476D01*
X10466667Y-14740476D01*
X10485714Y-14730952D01*
X10495238Y-14711905D01*
X10495238Y-14702381D01*
X10485714Y-14683333D01*
X10466667Y-14673809D01*
X10438095Y-14673809D01*
X10419048Y-14664286D01*
X10409524Y-14645238D01*
X10409524Y-14635714D01*
X10419048Y-14616667D01*
X10438095Y-14607143D01*
X10466667Y-14607143D01*
X10485714Y-14616667D01*
X10561905Y-14816667D02*
X10571429Y-14807143D01*
X10590476Y-14778571D01*
X10600000Y-14759524D01*
X10609524Y-14730952D01*
X10619048Y-14683333D01*
X10619048Y-14645238D01*
X10609524Y-14597619D01*
X10600000Y-14569048D01*
X10590476Y-14550000D01*
X10571429Y-14521428D01*
X10561905Y-14511905D01*
X10923810Y-14816667D02*
X10914286Y-14807143D01*
X10895238Y-14778571D01*
X10885714Y-14759524D01*
X10876190Y-14730952D01*
X10866667Y-14683333D01*
X10866667Y-14645238D01*
X10876190Y-14597619D01*
X10885714Y-14569048D01*
X10895238Y-14550000D01*
X10914286Y-14521428D01*
X10923810Y-14511905D01*
X11000000Y-14607143D02*
X11000000Y-14740476D01*
X11000000Y-14626190D02*
X11009524Y-14616667D01*
X11028571Y-14607143D01*
X11057143Y-14607143D01*
X11076190Y-14616667D01*
X11085714Y-14635714D01*
X11085714Y-14740476D01*
X11209524Y-14740476D02*
X11190476Y-14730952D01*
X11180952Y-14721428D01*
X11171429Y-14702381D01*
X11171429Y-14645238D01*
X11180952Y-14626190D01*
X11190476Y-14616667D01*
X11209524Y-14607143D01*
X11238095Y-14607143D01*
X11257143Y-14616667D01*
X11266667Y-14626190D01*
X11276190Y-14645238D01*
X11276190Y-14702381D01*
X11266667Y-14721428D01*
X11257143Y-14730952D01*
X11238095Y-14740476D01*
X11209524Y-14740476D01*
X11333333Y-14607143D02*
X11409524Y-14607143D01*
X11361905Y-14540476D02*
X11361905Y-14711905D01*
X11371428Y-14730952D01*
X11390476Y-14740476D01*
X11409524Y-14740476D01*
X11628571Y-14607143D02*
X11628571Y-14807143D01*
X11628571Y-14616667D02*
X11647619Y-14607143D01*
X11685714Y-14607143D01*
X11704762Y-14616667D01*
X11714286Y-14626190D01*
X11723809Y-14645238D01*
X11723809Y-14702381D01*
X11714286Y-14721428D01*
X11704762Y-14730952D01*
X11685714Y-14740476D01*
X11647619Y-14740476D01*
X11628571Y-14730952D01*
X11838095Y-14740476D02*
X11819048Y-14730952D01*
X11809524Y-14711905D01*
X11809524Y-14540476D01*
X12000000Y-14740476D02*
X12000000Y-14635714D01*
X11990476Y-14616667D01*
X11971428Y-14607143D01*
X11933333Y-14607143D01*
X11914286Y-14616667D01*
X12000000Y-14730952D02*
X11980952Y-14740476D01*
X11933333Y-14740476D01*
X11914286Y-14730952D01*
X11904762Y-14711905D01*
X11904762Y-14692857D01*
X11914286Y-14673809D01*
X11933333Y-14664286D01*
X11980952Y-14664286D01*
X12000000Y-14654762D01*
X12066667Y-14607143D02*
X12142857Y-14607143D01*
X12095238Y-14540476D02*
X12095238Y-14711905D01*
X12104762Y-14730952D01*
X12123809Y-14740476D01*
X12142857Y-14740476D01*
X12285714Y-14730952D02*
X12266667Y-14740476D01*
X12228571Y-14740476D01*
X12209524Y-14730952D01*
X12200000Y-14711905D01*
X12200000Y-14635714D01*
X12209524Y-14616667D01*
X12228571Y-14607143D01*
X12266667Y-14607143D01*
X12285714Y-14616667D01*
X12295238Y-14635714D01*
X12295238Y-14654762D01*
X12200000Y-14673809D01*
X12466667Y-14740476D02*
X12466667Y-14540476D01*
X12466667Y-14730952D02*
X12447619Y-14740476D01*
X12409524Y-14740476D01*
X12390476Y-14730952D01*
X12380952Y-14721428D01*
X12371428Y-14702381D01*
X12371428Y-14645238D01*
X12380952Y-14626190D01*
X12390476Y-14616667D01*
X12409524Y-14607143D01*
X12447619Y-14607143D01*
X12466667Y-14616667D01*
X12542857Y-14816667D02*
X12552381Y-14807143D01*
X12571428Y-14778571D01*
X12580952Y-14759524D01*
X12590476Y-14730952D01*
X12600000Y-14683333D01*
X12600000Y-14645238D01*
X12590476Y-14597619D01*
X12580952Y-14569048D01*
X12571428Y-14550000D01*
X12552381Y-14521428D01*
X12542857Y-14511905D01*
M02*
