%FSLAX45Y45*%
G04 Gerber Fmt 4.5, Leading zero omitted, Abs format (unit mm)*
G04 Created by KiCad (PCBNEW (6.0.4)) date 2022-07-29 23:36:17*
%MOMM*%
%LPD*%
G01*
G04 APERTURE LIST*
%TA.AperFunction,Profile*%
%ADD10C,0.200000*%
%TD*%
%ADD11C,0.200000*%
%ADD12C,0.040000*%
%ADD13C,0.080000*%
%ADD14C,0.090000*%
%ADD15C,0.100000*%
%ADD16C,0.104000*%
%ADD17C,0.110000*%
%ADD18C,0.119888*%
%ADD19C,0.120000*%
%ADD20C,0.140000*%
G04 APERTURE END LIST*
D10*
X6200000Y-5300000D02*
G75*
G03*
X5800000Y-5700000I0J-400000D01*
G01*
X18900000Y-5300000D02*
X6200000Y-5300000D01*
X6200000Y-14000000D02*
X18900000Y-14000000D01*
X5800000Y-5700000D02*
X5800000Y-13600000D01*
X18900000Y-14000000D02*
G75*
G03*
X19300000Y-13600000I0J400000D01*
G01*
X19300000Y-13600000D02*
X19300000Y-5700000D01*
X5800000Y-13600000D02*
G75*
G03*
X6200000Y-14000000I400000J0D01*
G01*
X19300000Y-5700000D02*
G75*
G03*
X18900000Y-5300000I-400000J0D01*
G01*
D11*
D12*
X10140000Y-11664000D02*
X10180000Y-11704000D01*
X10180000Y-11664000D02*
X10140000Y-11704000D01*
X10140000Y-11981500D02*
X10180000Y-12021500D01*
X10180000Y-11981500D02*
X10140000Y-12021500D01*
X10267000Y-8489000D02*
X10307000Y-8529000D01*
X10307000Y-8489000D02*
X10267000Y-8529000D01*
X13889790Y-8235000D02*
X13929790Y-8275000D01*
X13929790Y-8235000D02*
X13889790Y-8275000D01*
X14143790Y-8489000D02*
X14183790Y-8529000D01*
X14183790Y-8489000D02*
X14143790Y-8529000D01*
D13*
X8000000Y-6613000D02*
G75*
G03*
X8000000Y-6613000I-40000J0D01*
G01*
X8000000Y-7629000D02*
G75*
G03*
X8000000Y-7629000I-40000J0D01*
G01*
X8000000Y-8391000D02*
G75*
G03*
X8000000Y-8391000I-40000J0D01*
G01*
X8000000Y-9407000D02*
G75*
G03*
X8000000Y-9407000I-40000J0D01*
G01*
X8000000Y-10169000D02*
G75*
G03*
X8000000Y-10169000I-40000J0D01*
G01*
X8000000Y-11185000D02*
G75*
G03*
X8000000Y-11185000I-40000J0D01*
G01*
X8000000Y-11947000D02*
G75*
G03*
X8000000Y-11947000I-40000J0D01*
G01*
X8000000Y-12963000D02*
G75*
G03*
X8000000Y-12963000I-40000J0D01*
G01*
X8762000Y-7248000D02*
G75*
G03*
X8762000Y-7248000I-40000J0D01*
G01*
X8762000Y-7629000D02*
G75*
G03*
X8762000Y-7629000I-40000J0D01*
G01*
X8762000Y-9153000D02*
G75*
G03*
X8762000Y-9153000I-40000J0D01*
G01*
X8762000Y-9534000D02*
G75*
G03*
X8762000Y-9534000I-40000J0D01*
G01*
X8762000Y-10804000D02*
G75*
G03*
X8762000Y-10804000I-40000J0D01*
G01*
X8762000Y-11185000D02*
G75*
G03*
X8762000Y-11185000I-40000J0D01*
G01*
X8762000Y-12709000D02*
G75*
G03*
X8762000Y-12709000I-40000J0D01*
G01*
X8762000Y-13090000D02*
G75*
G03*
X8762000Y-13090000I-40000J0D01*
G01*
X9143000Y-8141000D02*
G75*
G03*
X9143000Y-8141000I-40000J0D01*
G01*
X9143000Y-8641000D02*
G75*
G03*
X9143000Y-8641000I-40000J0D01*
G01*
X9143000Y-11697000D02*
G75*
G03*
X9143000Y-11697000I-40000J0D01*
G01*
X9143000Y-12197000D02*
G75*
G03*
X9143000Y-12197000I-40000J0D01*
G01*
X9778000Y-7248000D02*
G75*
G03*
X9778000Y-7248000I-40000J0D01*
G01*
X9778000Y-7629000D02*
G75*
G03*
X9778000Y-7629000I-40000J0D01*
G01*
X9778000Y-8264000D02*
G75*
G03*
X9778000Y-8264000I-40000J0D01*
G01*
X9778000Y-8514000D02*
G75*
G03*
X9778000Y-8514000I-40000J0D01*
G01*
X9778000Y-9153000D02*
G75*
G03*
X9778000Y-9153000I-40000J0D01*
G01*
X9778000Y-9534000D02*
G75*
G03*
X9778000Y-9534000I-40000J0D01*
G01*
X9778000Y-10804000D02*
G75*
G03*
X9778000Y-10804000I-40000J0D01*
G01*
X9778000Y-11185000D02*
G75*
G03*
X9778000Y-11185000I-40000J0D01*
G01*
X9778000Y-11820000D02*
G75*
G03*
X9778000Y-11820000I-40000J0D01*
G01*
X9778000Y-12070000D02*
G75*
G03*
X9778000Y-12070000I-40000J0D01*
G01*
X9778000Y-12709000D02*
G75*
G03*
X9778000Y-12709000I-40000J0D01*
G01*
X9778000Y-13090000D02*
G75*
G03*
X9778000Y-13090000I-40000J0D01*
G01*
X10539000Y-8263000D02*
G75*
G03*
X10539000Y-8263000I-40000J0D01*
G01*
X10539000Y-8517000D02*
G75*
G03*
X10539000Y-8517000I-40000J0D01*
G01*
X10539000Y-8771000D02*
G75*
G03*
X10539000Y-8771000I-40000J0D01*
G01*
X10539000Y-9025000D02*
G75*
G03*
X10539000Y-9025000I-40000J0D01*
G01*
X10539000Y-9906000D02*
G75*
G03*
X10539000Y-9906000I-40000J0D01*
G01*
X10539000Y-10160000D02*
G75*
G03*
X10539000Y-10160000I-40000J0D01*
G01*
X10539000Y-10414000D02*
G75*
G03*
X10539000Y-10414000I-40000J0D01*
G01*
X10539000Y-10668000D02*
G75*
G03*
X10539000Y-10668000I-40000J0D01*
G01*
X10540000Y-11189000D02*
G75*
G03*
X10540000Y-11189000I-40000J0D01*
G01*
X10540000Y-11689000D02*
G75*
G03*
X10540000Y-11689000I-40000J0D01*
G01*
X10667000Y-9534000D02*
G75*
G03*
X10667000Y-9534000I-40000J0D01*
G01*
X10671000Y-7883000D02*
G75*
G03*
X10671000Y-7883000I-40000J0D01*
G01*
X11167000Y-9534000D02*
G75*
G03*
X11167000Y-9534000I-40000J0D01*
G01*
X11171000Y-7883000D02*
G75*
G03*
X11171000Y-7883000I-40000J0D01*
G01*
X11175000Y-11312000D02*
G75*
G03*
X11175000Y-11312000I-40000J0D01*
G01*
X11175000Y-11562000D02*
G75*
G03*
X11175000Y-11562000I-40000J0D01*
G01*
X11301000Y-8263000D02*
G75*
G03*
X11301000Y-8263000I-40000J0D01*
G01*
X11301000Y-8517000D02*
G75*
G03*
X11301000Y-8517000I-40000J0D01*
G01*
X11301000Y-8771000D02*
G75*
G03*
X11301000Y-8771000I-40000J0D01*
G01*
X11301000Y-9025000D02*
G75*
G03*
X11301000Y-9025000I-40000J0D01*
G01*
X11301000Y-9906000D02*
G75*
G03*
X11301000Y-9906000I-40000J0D01*
G01*
X11301000Y-10160000D02*
G75*
G03*
X11301000Y-10160000I-40000J0D01*
G01*
X11301000Y-10414000D02*
G75*
G03*
X11301000Y-10414000I-40000J0D01*
G01*
X11301000Y-10668000D02*
G75*
G03*
X11301000Y-10668000I-40000J0D01*
G01*
X11683000Y-8129000D02*
G75*
G03*
X11683000Y-8129000I-40000J0D01*
G01*
X11683000Y-8518000D02*
G75*
G03*
X11683000Y-8518000I-40000J0D01*
G01*
X11683000Y-8899000D02*
G75*
G03*
X11683000Y-8899000I-40000J0D01*
G01*
X11683000Y-9272000D02*
G75*
G03*
X11683000Y-9272000I-40000J0D01*
G01*
X11683000Y-9653000D02*
G75*
G03*
X11683000Y-9653000I-40000J0D01*
G01*
X11683000Y-10042000D02*
G75*
G03*
X11683000Y-10042000I-40000J0D01*
G01*
X11683000Y-10415000D02*
G75*
G03*
X11683000Y-10415000I-40000J0D01*
G01*
X11683000Y-10804000D02*
G75*
G03*
X11683000Y-10804000I-40000J0D01*
G01*
X11937000Y-7379000D02*
G75*
G03*
X11937000Y-7379000I-40000J0D01*
G01*
X11937000Y-7629000D02*
G75*
G03*
X11937000Y-7629000I-40000J0D01*
G01*
X11937000Y-12205000D02*
G75*
G03*
X11937000Y-12205000I-40000J0D01*
G01*
X11937000Y-12705000D02*
G75*
G03*
X11937000Y-12705000I-40000J0D01*
G01*
X12572000Y-7252000D02*
G75*
G03*
X12572000Y-7252000I-40000J0D01*
G01*
X12572000Y-7752000D02*
G75*
G03*
X12572000Y-7752000I-40000J0D01*
G01*
X12572000Y-12332000D02*
G75*
G03*
X12572000Y-12332000I-40000J0D01*
G01*
X12572000Y-12582000D02*
G75*
G03*
X12572000Y-12582000I-40000J0D01*
G01*
X12699000Y-8129000D02*
G75*
G03*
X12699000Y-8129000I-40000J0D01*
G01*
X12699000Y-8518000D02*
G75*
G03*
X12699000Y-8518000I-40000J0D01*
G01*
X12699000Y-8899000D02*
G75*
G03*
X12699000Y-8899000I-40000J0D01*
G01*
X12699000Y-9272000D02*
G75*
G03*
X12699000Y-9272000I-40000J0D01*
G01*
X12699000Y-9653000D02*
G75*
G03*
X12699000Y-9653000I-40000J0D01*
G01*
X12699000Y-10042000D02*
G75*
G03*
X12699000Y-10042000I-40000J0D01*
G01*
X12699000Y-10415000D02*
G75*
G03*
X12699000Y-10415000I-40000J0D01*
G01*
X12699000Y-10804000D02*
G75*
G03*
X12699000Y-10804000I-40000J0D01*
G01*
D14*
X8468000Y-6441000D02*
X8468000Y-6531000D01*
X8423000Y-6486000D02*
X8513000Y-6486000D01*
X8468000Y-6695000D02*
X8468000Y-6785000D01*
X8423000Y-6740000D02*
X8513000Y-6740000D01*
X8468000Y-8219000D02*
X8468000Y-8309000D01*
X8423000Y-8264000D02*
X8513000Y-8264000D01*
X8468000Y-8473000D02*
X8468000Y-8563000D01*
X8423000Y-8518000D02*
X8513000Y-8518000D01*
X8468000Y-9997000D02*
X8468000Y-10087000D01*
X8423000Y-10042000D02*
X8513000Y-10042000D01*
X8468000Y-10251000D02*
X8468000Y-10341000D01*
X8423000Y-10296000D02*
X8513000Y-10296000D01*
X8468000Y-11775000D02*
X8468000Y-11865000D01*
X8423000Y-11820000D02*
X8513000Y-11820000D01*
X8468000Y-12029000D02*
X8468000Y-12119000D01*
X8423000Y-12074000D02*
X8513000Y-12074000D01*
D15*
X10408356Y-7029356D02*
X10408356Y-6958644D01*
X10337644Y-6958644D01*
X10337644Y-7029356D01*
X10408356Y-7029356D01*
X10662356Y-7029356D02*
X10662356Y-6958644D01*
X10591644Y-6958644D01*
X10591644Y-7029356D01*
X10662356Y-7029356D01*
X10916356Y-7029356D02*
X10916356Y-6958644D01*
X10845644Y-6958644D01*
X10845644Y-7029356D01*
X10916356Y-7029356D01*
X11170356Y-7029356D02*
X11170356Y-6958644D01*
X11099644Y-6958644D01*
X11099644Y-7029356D01*
X11170356Y-7029356D01*
X12058356Y-11796356D02*
X12058356Y-11725644D01*
X11987644Y-11725644D01*
X11987644Y-11796356D01*
X12058356Y-11796356D01*
X12312356Y-11796356D02*
X12312356Y-11725644D01*
X12241644Y-11725644D01*
X12241644Y-11796356D01*
X12312356Y-11796356D01*
X12566356Y-11796356D02*
X12566356Y-11725644D01*
X12495644Y-11725644D01*
X12495644Y-11796356D01*
X12566356Y-11796356D01*
X16377356Y-12617356D02*
X16377356Y-12546644D01*
X16306644Y-12546644D01*
X16306644Y-12617356D01*
X16377356Y-12617356D01*
X16631356Y-12617356D02*
X16631356Y-12546644D01*
X16560644Y-12546644D01*
X16560644Y-12617356D01*
X16631356Y-12617356D01*
X16750976Y-8061676D02*
X16750976Y-7990964D01*
X16680264Y-7990964D01*
X16680264Y-8061676D01*
X16750976Y-8061676D01*
X16756956Y-11070426D02*
X16756956Y-10999714D01*
X16686244Y-10999714D01*
X16686244Y-11070426D01*
X16756956Y-11070426D01*
X16885356Y-12617356D02*
X16885356Y-12546644D01*
X16814644Y-12546644D01*
X16814644Y-12617356D01*
X16885356Y-12617356D01*
X17004976Y-8061676D02*
X17004976Y-7990964D01*
X16934264Y-7990964D01*
X16934264Y-8061676D01*
X17004976Y-8061676D01*
X17010956Y-11070426D02*
X17010956Y-10999714D01*
X16940244Y-10999714D01*
X16940244Y-11070426D01*
X17010956Y-11070426D01*
X17258976Y-8061676D02*
X17258976Y-7990964D01*
X17188264Y-7990964D01*
X17188264Y-8061676D01*
X17258976Y-8061676D01*
X17264956Y-11070426D02*
X17264956Y-10999714D01*
X17194244Y-10999714D01*
X17194244Y-11070426D01*
X17264956Y-11070426D01*
X17512976Y-8061676D02*
X17512976Y-7990964D01*
X17442264Y-7990964D01*
X17442264Y-8061676D01*
X17512976Y-8061676D01*
X17518956Y-11070426D02*
X17518956Y-10999714D01*
X17448244Y-10999714D01*
X17448244Y-11070426D01*
X17518956Y-11070426D01*
X17766976Y-8061676D02*
X17766976Y-7990964D01*
X17696264Y-7990964D01*
X17696264Y-8061676D01*
X17766976Y-8061676D01*
X17772956Y-11070426D02*
X17772956Y-10999714D01*
X17702244Y-10999714D01*
X17702244Y-11070426D01*
X17772956Y-11070426D01*
X18020976Y-8061676D02*
X18020976Y-7990964D01*
X17950264Y-7990964D01*
X17950264Y-8061676D01*
X18020976Y-8061676D01*
X18026956Y-11070426D02*
X18026956Y-10999714D01*
X17956244Y-10999714D01*
X17956244Y-11070426D01*
X18026956Y-11070426D01*
X18274976Y-8061676D02*
X18274976Y-7990964D01*
X18204264Y-7990964D01*
X18204264Y-8061676D01*
X18274976Y-8061676D01*
X18280956Y-11070426D02*
X18280956Y-10999714D01*
X18210244Y-10999714D01*
X18210244Y-11070426D01*
X18280956Y-11070426D01*
D16*
X13103500Y-7800500D02*
X13155500Y-7748500D01*
X13103500Y-7696500D01*
X13051500Y-7748500D01*
X13103500Y-7800500D01*
X13103500Y-8054500D02*
X13155500Y-8002500D01*
X13103500Y-7950500D01*
X13051500Y-8002500D01*
X13103500Y-8054500D01*
X13103500Y-8308500D02*
X13155500Y-8256500D01*
X13103500Y-8204500D01*
X13051500Y-8256500D01*
X13103500Y-8308500D01*
X13103500Y-8562500D02*
X13155500Y-8510500D01*
X13103500Y-8458500D01*
X13051500Y-8510500D01*
X13103500Y-8562500D01*
X13103500Y-8816500D02*
X13155500Y-8764500D01*
X13103500Y-8712500D01*
X13051500Y-8764500D01*
X13103500Y-8816500D01*
X13103500Y-9070500D02*
X13155500Y-9018500D01*
X13103500Y-8966500D01*
X13051500Y-9018500D01*
X13103500Y-9070500D01*
X13103500Y-9324500D02*
X13155500Y-9272500D01*
X13103500Y-9220500D01*
X13051500Y-9272500D01*
X13103500Y-9324500D01*
X13103500Y-9578500D02*
X13155500Y-9526500D01*
X13103500Y-9474500D01*
X13051500Y-9526500D01*
X13103500Y-9578500D01*
X13103500Y-9832500D02*
X13155500Y-9780500D01*
X13103500Y-9728500D01*
X13051500Y-9780500D01*
X13103500Y-9832500D01*
X13103500Y-10086500D02*
X13155500Y-10034500D01*
X13103500Y-9982500D01*
X13051500Y-10034500D01*
X13103500Y-10086500D01*
X13103500Y-10340500D02*
X13155500Y-10288500D01*
X13103500Y-10236500D01*
X13051500Y-10288500D01*
X13103500Y-10340500D01*
X13103500Y-10594500D02*
X13155500Y-10542500D01*
X13103500Y-10490500D01*
X13051500Y-10542500D01*
X13103500Y-10594500D01*
X13103500Y-10848500D02*
X13155500Y-10796500D01*
X13103500Y-10744500D01*
X13051500Y-10796500D01*
X13103500Y-10848500D01*
X13103500Y-11102500D02*
X13155500Y-11050500D01*
X13103500Y-10998500D01*
X13051500Y-11050500D01*
X13103500Y-11102500D01*
X13103500Y-11356500D02*
X13155500Y-11304500D01*
X13103500Y-11252500D01*
X13051500Y-11304500D01*
X13103500Y-11356500D01*
X13103500Y-11610500D02*
X13155500Y-11558500D01*
X13103500Y-11506500D01*
X13051500Y-11558500D01*
X13103500Y-11610500D01*
X13103500Y-11864500D02*
X13155500Y-11812500D01*
X13103500Y-11760500D01*
X13051500Y-11812500D01*
X13103500Y-11864500D01*
X13103500Y-12118500D02*
X13155500Y-12066500D01*
X13103500Y-12014500D01*
X13051500Y-12066500D01*
X13103500Y-12118500D01*
X13103500Y-12372500D02*
X13155500Y-12320500D01*
X13103500Y-12268500D01*
X13051500Y-12320500D01*
X13103500Y-12372500D01*
X15643500Y-7800500D02*
X15695500Y-7748500D01*
X15643500Y-7696500D01*
X15591500Y-7748500D01*
X15643500Y-7800500D01*
X15643500Y-8054500D02*
X15695500Y-8002500D01*
X15643500Y-7950500D01*
X15591500Y-8002500D01*
X15643500Y-8054500D01*
X15643500Y-8308500D02*
X15695500Y-8256500D01*
X15643500Y-8204500D01*
X15591500Y-8256500D01*
X15643500Y-8308500D01*
X15643500Y-8562500D02*
X15695500Y-8510500D01*
X15643500Y-8458500D01*
X15591500Y-8510500D01*
X15643500Y-8562500D01*
X15643500Y-8816500D02*
X15695500Y-8764500D01*
X15643500Y-8712500D01*
X15591500Y-8764500D01*
X15643500Y-8816500D01*
X15643500Y-9070500D02*
X15695500Y-9018500D01*
X15643500Y-8966500D01*
X15591500Y-9018500D01*
X15643500Y-9070500D01*
X15643500Y-9324500D02*
X15695500Y-9272500D01*
X15643500Y-9220500D01*
X15591500Y-9272500D01*
X15643500Y-9324500D01*
X15643500Y-9578500D02*
X15695500Y-9526500D01*
X15643500Y-9474500D01*
X15591500Y-9526500D01*
X15643500Y-9578500D01*
X15643500Y-9832500D02*
X15695500Y-9780500D01*
X15643500Y-9728500D01*
X15591500Y-9780500D01*
X15643500Y-9832500D01*
X15643500Y-10086500D02*
X15695500Y-10034500D01*
X15643500Y-9982500D01*
X15591500Y-10034500D01*
X15643500Y-10086500D01*
X15643500Y-10340500D02*
X15695500Y-10288500D01*
X15643500Y-10236500D01*
X15591500Y-10288500D01*
X15643500Y-10340500D01*
X15643500Y-10594500D02*
X15695500Y-10542500D01*
X15643500Y-10490500D01*
X15591500Y-10542500D01*
X15643500Y-10594500D01*
X15643500Y-10848500D02*
X15695500Y-10796500D01*
X15643500Y-10744500D01*
X15591500Y-10796500D01*
X15643500Y-10848500D01*
X15643500Y-11102500D02*
X15695500Y-11050500D01*
X15643500Y-10998500D01*
X15591500Y-11050500D01*
X15643500Y-11102500D01*
X15643500Y-11356500D02*
X15695500Y-11304500D01*
X15643500Y-11252500D01*
X15591500Y-11304500D01*
X15643500Y-11356500D01*
X15643500Y-11610500D02*
X15695500Y-11558500D01*
X15643500Y-11506500D01*
X15591500Y-11558500D01*
X15643500Y-11610500D01*
X15643500Y-11864500D02*
X15695500Y-11812500D01*
X15643500Y-11760500D01*
X15591500Y-11812500D01*
X15643500Y-11864500D01*
X15643500Y-12118500D02*
X15695500Y-12066500D01*
X15643500Y-12014500D01*
X15591500Y-12066500D01*
X15643500Y-12118500D01*
X15643500Y-12372500D02*
X15695500Y-12320500D01*
X15643500Y-12268500D01*
X15591500Y-12320500D01*
X15643500Y-12372500D01*
D17*
X8380500Y-12527000D02*
X8490500Y-12637000D01*
X8490500Y-12527000D02*
X8380500Y-12637000D01*
X8490500Y-12582000D02*
G75*
G03*
X8490500Y-12582000I-55000J0D01*
G01*
X8380500Y-12781000D02*
X8490500Y-12891000D01*
X8490500Y-12781000D02*
X8380500Y-12891000D01*
X8490500Y-12836000D02*
G75*
G03*
X8490500Y-12836000I-55000J0D01*
G01*
X8380500Y-13035000D02*
X8490500Y-13145000D01*
X8490500Y-13035000D02*
X8380500Y-13145000D01*
X8490500Y-13090000D02*
G75*
G03*
X8490500Y-13090000I-55000J0D01*
G01*
X8413000Y-7193000D02*
X8523000Y-7303000D01*
X8523000Y-7193000D02*
X8413000Y-7303000D01*
X8523000Y-7248000D02*
G75*
G03*
X8523000Y-7248000I-55000J0D01*
G01*
X8413000Y-7447000D02*
X8523000Y-7557000D01*
X8523000Y-7447000D02*
X8413000Y-7557000D01*
X8523000Y-7502000D02*
G75*
G03*
X8523000Y-7502000I-55000J0D01*
G01*
X8413000Y-7701000D02*
X8523000Y-7811000D01*
X8523000Y-7701000D02*
X8413000Y-7811000D01*
X8523000Y-7756000D02*
G75*
G03*
X8523000Y-7756000I-55000J0D01*
G01*
X8413000Y-8971000D02*
X8523000Y-9081000D01*
X8523000Y-8971000D02*
X8413000Y-9081000D01*
X8523000Y-9026000D02*
G75*
G03*
X8523000Y-9026000I-55000J0D01*
G01*
X8413000Y-9225000D02*
X8523000Y-9335000D01*
X8523000Y-9225000D02*
X8413000Y-9335000D01*
X8523000Y-9280000D02*
G75*
G03*
X8523000Y-9280000I-55000J0D01*
G01*
X8413000Y-9479000D02*
X8523000Y-9589000D01*
X8523000Y-9479000D02*
X8413000Y-9589000D01*
X8523000Y-9534000D02*
G75*
G03*
X8523000Y-9534000I-55000J0D01*
G01*
X8413000Y-10749000D02*
X8523000Y-10859000D01*
X8523000Y-10749000D02*
X8413000Y-10859000D01*
X8523000Y-10804000D02*
G75*
G03*
X8523000Y-10804000I-55000J0D01*
G01*
X8413000Y-11003000D02*
X8523000Y-11113000D01*
X8523000Y-11003000D02*
X8413000Y-11113000D01*
X8523000Y-11058000D02*
G75*
G03*
X8523000Y-11058000I-55000J0D01*
G01*
X8413000Y-11257000D02*
X8523000Y-11367000D01*
X8523000Y-11257000D02*
X8413000Y-11367000D01*
X8523000Y-11312000D02*
G75*
G03*
X8523000Y-11312000I-55000J0D01*
G01*
D18*
X17349216Y-11755120D02*
X17469104Y-11875008D01*
X17469104Y-11755120D02*
X17349216Y-11875008D01*
X17409160Y-11755120D02*
X17409160Y-11875008D01*
X17349216Y-11815064D02*
X17469104Y-11815064D01*
X17349216Y-12254992D02*
X17469104Y-12374880D01*
X17469104Y-12254992D02*
X17349216Y-12374880D01*
X17409160Y-12254992D02*
X17409160Y-12374880D01*
X17349216Y-12314936D02*
X17469104Y-12314936D01*
X18598896Y-11755120D02*
X18718784Y-11875008D01*
X18718784Y-11755120D02*
X18598896Y-11875008D01*
X18658840Y-11755120D02*
X18658840Y-11875008D01*
X18598896Y-11815064D02*
X18718784Y-11815064D01*
X18598896Y-12254992D02*
X18718784Y-12374880D01*
X18718784Y-12254992D02*
X18598896Y-12374880D01*
X18658840Y-12254992D02*
X18658840Y-12374880D01*
X18598896Y-12314936D02*
X18718784Y-12314936D01*
D19*
X7519000Y-6426000D02*
X7639000Y-6546000D01*
X7639000Y-6426000D02*
X7519000Y-6546000D01*
X7621427Y-6528427D02*
X7621427Y-6443573D01*
X7536573Y-6443573D01*
X7536573Y-6528427D01*
X7621427Y-6528427D01*
X7519000Y-7696000D02*
X7639000Y-7816000D01*
X7639000Y-7696000D02*
X7519000Y-7816000D01*
X7621427Y-7798427D02*
X7621427Y-7713573D01*
X7536573Y-7713573D01*
X7536573Y-7798427D01*
X7621427Y-7798427D01*
X7519000Y-8204000D02*
X7639000Y-8324000D01*
X7639000Y-8204000D02*
X7519000Y-8324000D01*
X7621427Y-8306427D02*
X7621427Y-8221573D01*
X7536573Y-8221573D01*
X7536573Y-8306427D01*
X7621427Y-8306427D01*
X7519000Y-9474000D02*
X7639000Y-9594000D01*
X7639000Y-9474000D02*
X7519000Y-9594000D01*
X7621427Y-9576427D02*
X7621427Y-9491573D01*
X7536573Y-9491573D01*
X7536573Y-9576427D01*
X7621427Y-9576427D01*
X7519000Y-9982000D02*
X7639000Y-10102000D01*
X7639000Y-9982000D02*
X7519000Y-10102000D01*
X7621427Y-10084427D02*
X7621427Y-9999573D01*
X7536573Y-9999573D01*
X7536573Y-10084427D01*
X7621427Y-10084427D01*
X7519000Y-11252000D02*
X7639000Y-11372000D01*
X7639000Y-11252000D02*
X7519000Y-11372000D01*
X7621427Y-11354427D02*
X7621427Y-11269573D01*
X7536573Y-11269573D01*
X7536573Y-11354427D01*
X7621427Y-11354427D01*
X7519000Y-11760000D02*
X7639000Y-11880000D01*
X7639000Y-11760000D02*
X7519000Y-11880000D01*
X7621427Y-11862427D02*
X7621427Y-11777573D01*
X7536573Y-11777573D01*
X7536573Y-11862427D01*
X7621427Y-11862427D01*
X7519000Y-13030000D02*
X7639000Y-13150000D01*
X7639000Y-13030000D02*
X7519000Y-13150000D01*
X7621427Y-13132427D02*
X7621427Y-13047573D01*
X7536573Y-13047573D01*
X7536573Y-13132427D01*
X7621427Y-13132427D01*
D20*
X6239000Y-6543000D02*
X6379000Y-6683000D01*
X6379000Y-6543000D02*
X6239000Y-6683000D01*
X6309000Y-6683000D02*
X6379000Y-6613000D01*
X6309000Y-6543000D01*
X6239000Y-6613000D01*
X6309000Y-6683000D01*
X6239000Y-7051000D02*
X6379000Y-7191000D01*
X6379000Y-7051000D02*
X6239000Y-7191000D01*
X6309000Y-7191000D02*
X6379000Y-7121000D01*
X6309000Y-7051000D01*
X6239000Y-7121000D01*
X6309000Y-7191000D01*
X6239000Y-8321000D02*
X6379000Y-8461000D01*
X6379000Y-8321000D02*
X6239000Y-8461000D01*
X6309000Y-8461000D02*
X6379000Y-8391000D01*
X6309000Y-8321000D01*
X6239000Y-8391000D01*
X6309000Y-8461000D01*
X6239000Y-8829000D02*
X6379000Y-8969000D01*
X6379000Y-8829000D02*
X6239000Y-8969000D01*
X6309000Y-8969000D02*
X6379000Y-8899000D01*
X6309000Y-8829000D01*
X6239000Y-8899000D01*
X6309000Y-8969000D01*
X6239000Y-10107000D02*
X6379000Y-10247000D01*
X6379000Y-10107000D02*
X6239000Y-10247000D01*
X6309000Y-10247000D02*
X6379000Y-10177000D01*
X6309000Y-10107000D01*
X6239000Y-10177000D01*
X6309000Y-10247000D01*
X6239000Y-10615000D02*
X6379000Y-10755000D01*
X6379000Y-10615000D02*
X6239000Y-10755000D01*
X6309000Y-10755000D02*
X6379000Y-10685000D01*
X6309000Y-10615000D01*
X6239000Y-10685000D01*
X6309000Y-10755000D01*
X6239000Y-11885000D02*
X6379000Y-12025000D01*
X6379000Y-11885000D02*
X6239000Y-12025000D01*
X6309000Y-12025000D02*
X6379000Y-11955000D01*
X6309000Y-11885000D01*
X6239000Y-11955000D01*
X6309000Y-12025000D01*
X6239000Y-12393000D02*
X6379000Y-12533000D01*
X6379000Y-12393000D02*
X6239000Y-12533000D01*
X6309000Y-12533000D02*
X6379000Y-12463000D01*
X6309000Y-12393000D01*
X6239000Y-12463000D01*
X6309000Y-12533000D01*
X7001000Y-6543000D02*
X7141000Y-6683000D01*
X7141000Y-6543000D02*
X7001000Y-6683000D01*
X7071000Y-6683000D02*
X7141000Y-6613000D01*
X7071000Y-6543000D01*
X7001000Y-6613000D01*
X7071000Y-6683000D01*
X7001000Y-7051000D02*
X7141000Y-7191000D01*
X7141000Y-7051000D02*
X7001000Y-7191000D01*
X7071000Y-7191000D02*
X7141000Y-7121000D01*
X7071000Y-7051000D01*
X7001000Y-7121000D01*
X7071000Y-7191000D01*
X7001000Y-8321000D02*
X7141000Y-8461000D01*
X7141000Y-8321000D02*
X7001000Y-8461000D01*
X7071000Y-8461000D02*
X7141000Y-8391000D01*
X7071000Y-8321000D01*
X7001000Y-8391000D01*
X7071000Y-8461000D01*
X7001000Y-8829000D02*
X7141000Y-8969000D01*
X7141000Y-8829000D02*
X7001000Y-8969000D01*
X7071000Y-8969000D02*
X7141000Y-8899000D01*
X7071000Y-8829000D01*
X7001000Y-8899000D01*
X7071000Y-8969000D01*
X7001000Y-10107000D02*
X7141000Y-10247000D01*
X7141000Y-10107000D02*
X7001000Y-10247000D01*
X7071000Y-10247000D02*
X7141000Y-10177000D01*
X7071000Y-10107000D01*
X7001000Y-10177000D01*
X7071000Y-10247000D01*
X7001000Y-10615000D02*
X7141000Y-10755000D01*
X7141000Y-10615000D02*
X7001000Y-10755000D01*
X7071000Y-10755000D02*
X7141000Y-10685000D01*
X7071000Y-10615000D01*
X7001000Y-10685000D01*
X7071000Y-10755000D01*
X7001000Y-11885000D02*
X7141000Y-12025000D01*
X7141000Y-11885000D02*
X7001000Y-12025000D01*
X7071000Y-12025000D02*
X7141000Y-11955000D01*
X7071000Y-11885000D01*
X7001000Y-11955000D01*
X7071000Y-12025000D01*
X7001000Y-12393000D02*
X7141000Y-12533000D01*
X7141000Y-12393000D02*
X7001000Y-12533000D01*
X7071000Y-12533000D02*
X7141000Y-12463000D01*
X7071000Y-12393000D01*
X7001000Y-12463000D01*
X7071000Y-12533000D01*
X10438000Y-12040750D02*
X10578000Y-12180750D01*
X10578000Y-12040750D02*
X10438000Y-12180750D01*
X10508000Y-12180750D02*
X10578000Y-12110750D01*
X10508000Y-12040750D01*
X10438000Y-12110750D01*
X10508000Y-12180750D01*
X10438000Y-12802750D02*
X10578000Y-12942750D01*
X10578000Y-12802750D02*
X10438000Y-12942750D01*
X10508000Y-12942750D02*
X10578000Y-12872750D01*
X10508000Y-12802750D01*
X10438000Y-12872750D01*
X10508000Y-12942750D01*
X10946000Y-12040750D02*
X11086000Y-12180750D01*
X11086000Y-12040750D02*
X10946000Y-12180750D01*
X11016000Y-12180750D02*
X11086000Y-12110750D01*
X11016000Y-12040750D01*
X10946000Y-12110750D01*
X11016000Y-12180750D01*
X10946000Y-12802750D02*
X11086000Y-12942750D01*
X11086000Y-12802750D02*
X10946000Y-12942750D01*
X11016000Y-12942750D02*
X11086000Y-12872750D01*
X11016000Y-12802750D01*
X10946000Y-12872750D01*
X11016000Y-12942750D01*
D11*
X6047619Y-14320476D02*
X6047619Y-14120476D01*
X6095238Y-14120476D01*
X6123809Y-14130000D01*
X6142857Y-14149048D01*
X6152381Y-14168095D01*
X6161905Y-14206190D01*
X6161905Y-14234762D01*
X6152381Y-14272857D01*
X6142857Y-14291905D01*
X6123809Y-14310952D01*
X6095238Y-14320476D01*
X6047619Y-14320476D01*
X6247619Y-14320476D02*
X6247619Y-14187143D01*
X6247619Y-14225238D02*
X6257143Y-14206190D01*
X6266667Y-14196667D01*
X6285714Y-14187143D01*
X6304762Y-14187143D01*
X6371428Y-14320476D02*
X6371428Y-14187143D01*
X6371428Y-14120476D02*
X6361905Y-14130000D01*
X6371428Y-14139524D01*
X6380952Y-14130000D01*
X6371428Y-14120476D01*
X6371428Y-14139524D01*
X6495238Y-14320476D02*
X6476190Y-14310952D01*
X6466667Y-14291905D01*
X6466667Y-14120476D01*
X6600000Y-14320476D02*
X6580952Y-14310952D01*
X6571428Y-14291905D01*
X6571428Y-14120476D01*
X6828571Y-14320476D02*
X6828571Y-14120476D01*
X6895238Y-14263333D01*
X6961905Y-14120476D01*
X6961905Y-14320476D01*
X7142857Y-14320476D02*
X7142857Y-14215714D01*
X7133333Y-14196667D01*
X7114286Y-14187143D01*
X7076190Y-14187143D01*
X7057143Y-14196667D01*
X7142857Y-14310952D02*
X7123809Y-14320476D01*
X7076190Y-14320476D01*
X7057143Y-14310952D01*
X7047619Y-14291905D01*
X7047619Y-14272857D01*
X7057143Y-14253809D01*
X7076190Y-14244286D01*
X7123809Y-14244286D01*
X7142857Y-14234762D01*
X7238095Y-14187143D02*
X7238095Y-14387143D01*
X7238095Y-14196667D02*
X7257143Y-14187143D01*
X7295238Y-14187143D01*
X7314286Y-14196667D01*
X7323809Y-14206190D01*
X7333333Y-14225238D01*
X7333333Y-14282381D01*
X7323809Y-14301428D01*
X7314286Y-14310952D01*
X7295238Y-14320476D01*
X7257143Y-14320476D01*
X7238095Y-14310952D01*
X7419048Y-14301428D02*
X7428571Y-14310952D01*
X7419048Y-14320476D01*
X7409524Y-14310952D01*
X7419048Y-14301428D01*
X7419048Y-14320476D01*
X7419048Y-14196667D02*
X7428571Y-14206190D01*
X7419048Y-14215714D01*
X7409524Y-14206190D01*
X7419048Y-14196667D01*
X7419048Y-14215714D01*
D12*
X5750000Y-14630000D02*
X5790000Y-14670000D01*
X5790000Y-14630000D02*
X5750000Y-14670000D01*
D11*
X6085714Y-14540476D02*
X6104762Y-14540476D01*
X6123809Y-14550000D01*
X6133333Y-14559524D01*
X6142857Y-14578571D01*
X6152381Y-14616667D01*
X6152381Y-14664286D01*
X6142857Y-14702381D01*
X6133333Y-14721428D01*
X6123809Y-14730952D01*
X6104762Y-14740476D01*
X6085714Y-14740476D01*
X6066667Y-14730952D01*
X6057143Y-14721428D01*
X6047619Y-14702381D01*
X6038095Y-14664286D01*
X6038095Y-14616667D01*
X6047619Y-14578571D01*
X6057143Y-14559524D01*
X6066667Y-14550000D01*
X6085714Y-14540476D01*
X6238095Y-14721428D02*
X6247619Y-14730952D01*
X6238095Y-14740476D01*
X6228571Y-14730952D01*
X6238095Y-14721428D01*
X6238095Y-14740476D01*
X6419048Y-14607143D02*
X6419048Y-14740476D01*
X6371428Y-14530952D02*
X6323809Y-14673809D01*
X6447619Y-14673809D01*
X6561905Y-14540476D02*
X6580952Y-14540476D01*
X6600000Y-14550000D01*
X6609524Y-14559524D01*
X6619048Y-14578571D01*
X6628571Y-14616667D01*
X6628571Y-14664286D01*
X6619048Y-14702381D01*
X6609524Y-14721428D01*
X6600000Y-14730952D01*
X6580952Y-14740476D01*
X6561905Y-14740476D01*
X6542857Y-14730952D01*
X6533333Y-14721428D01*
X6523809Y-14702381D01*
X6514286Y-14664286D01*
X6514286Y-14616667D01*
X6523809Y-14578571D01*
X6533333Y-14559524D01*
X6542857Y-14550000D01*
X6561905Y-14540476D01*
X6752381Y-14540476D02*
X6771428Y-14540476D01*
X6790476Y-14550000D01*
X6800000Y-14559524D01*
X6809524Y-14578571D01*
X6819048Y-14616667D01*
X6819048Y-14664286D01*
X6809524Y-14702381D01*
X6800000Y-14721428D01*
X6790476Y-14730952D01*
X6771428Y-14740476D01*
X6752381Y-14740476D01*
X6733333Y-14730952D01*
X6723809Y-14721428D01*
X6714286Y-14702381D01*
X6704762Y-14664286D01*
X6704762Y-14616667D01*
X6714286Y-14578571D01*
X6723809Y-14559524D01*
X6733333Y-14550000D01*
X6752381Y-14540476D01*
X6904762Y-14740476D02*
X6904762Y-14607143D01*
X6904762Y-14626190D02*
X6914286Y-14616667D01*
X6933333Y-14607143D01*
X6961905Y-14607143D01*
X6980952Y-14616667D01*
X6990476Y-14635714D01*
X6990476Y-14740476D01*
X6990476Y-14635714D02*
X7000000Y-14616667D01*
X7019048Y-14607143D01*
X7047619Y-14607143D01*
X7066667Y-14616667D01*
X7076190Y-14635714D01*
X7076190Y-14740476D01*
X7171428Y-14740476D02*
X7171428Y-14607143D01*
X7171428Y-14626190D02*
X7180952Y-14616667D01*
X7200000Y-14607143D01*
X7228571Y-14607143D01*
X7247619Y-14616667D01*
X7257143Y-14635714D01*
X7257143Y-14740476D01*
X7257143Y-14635714D02*
X7266667Y-14616667D01*
X7285714Y-14607143D01*
X7314286Y-14607143D01*
X7333333Y-14616667D01*
X7342857Y-14635714D01*
X7342857Y-14740476D01*
X7733333Y-14530952D02*
X7561905Y-14788095D01*
X7990476Y-14540476D02*
X8009524Y-14540476D01*
X8028571Y-14550000D01*
X8038095Y-14559524D01*
X8047619Y-14578571D01*
X8057143Y-14616667D01*
X8057143Y-14664286D01*
X8047619Y-14702381D01*
X8038095Y-14721428D01*
X8028571Y-14730952D01*
X8009524Y-14740476D01*
X7990476Y-14740476D01*
X7971428Y-14730952D01*
X7961905Y-14721428D01*
X7952381Y-14702381D01*
X7942857Y-14664286D01*
X7942857Y-14616667D01*
X7952381Y-14578571D01*
X7961905Y-14559524D01*
X7971428Y-14550000D01*
X7990476Y-14540476D01*
X8142857Y-14721428D02*
X8152381Y-14730952D01*
X8142857Y-14740476D01*
X8133333Y-14730952D01*
X8142857Y-14721428D01*
X8142857Y-14740476D01*
X8276190Y-14540476D02*
X8295238Y-14540476D01*
X8314286Y-14550000D01*
X8323809Y-14559524D01*
X8333333Y-14578571D01*
X8342857Y-14616667D01*
X8342857Y-14664286D01*
X8333333Y-14702381D01*
X8323809Y-14721428D01*
X8314286Y-14730952D01*
X8295238Y-14740476D01*
X8276190Y-14740476D01*
X8257143Y-14730952D01*
X8247619Y-14721428D01*
X8238095Y-14702381D01*
X8228571Y-14664286D01*
X8228571Y-14616667D01*
X8238095Y-14578571D01*
X8247619Y-14559524D01*
X8257143Y-14550000D01*
X8276190Y-14540476D01*
X8533333Y-14740476D02*
X8419048Y-14740476D01*
X8476190Y-14740476D02*
X8476190Y-14540476D01*
X8457143Y-14569048D01*
X8438095Y-14588095D01*
X8419048Y-14597619D01*
X8714286Y-14540476D02*
X8619048Y-14540476D01*
X8609524Y-14635714D01*
X8619048Y-14626190D01*
X8638095Y-14616667D01*
X8685714Y-14616667D01*
X8704762Y-14626190D01*
X8714286Y-14635714D01*
X8723810Y-14654762D01*
X8723810Y-14702381D01*
X8714286Y-14721428D01*
X8704762Y-14730952D01*
X8685714Y-14740476D01*
X8638095Y-14740476D01*
X8619048Y-14730952D01*
X8609524Y-14721428D01*
X8790476Y-14540476D02*
X8923810Y-14540476D01*
X8838095Y-14740476D01*
X8990476Y-14540476D02*
X8990476Y-14578571D01*
X9066667Y-14540476D02*
X9066667Y-14578571D01*
X9361905Y-14816667D02*
X9352381Y-14807143D01*
X9333333Y-14778571D01*
X9323810Y-14759524D01*
X9314286Y-14730952D01*
X9304762Y-14683333D01*
X9304762Y-14645238D01*
X9314286Y-14597619D01*
X9323810Y-14569048D01*
X9333333Y-14550000D01*
X9352381Y-14521428D01*
X9361905Y-14511905D01*
X9533333Y-14540476D02*
X9438095Y-14540476D01*
X9428571Y-14635714D01*
X9438095Y-14626190D01*
X9457143Y-14616667D01*
X9504762Y-14616667D01*
X9523810Y-14626190D01*
X9533333Y-14635714D01*
X9542857Y-14654762D01*
X9542857Y-14702381D01*
X9533333Y-14721428D01*
X9523810Y-14730952D01*
X9504762Y-14740476D01*
X9457143Y-14740476D01*
X9438095Y-14730952D01*
X9428571Y-14721428D01*
X9780952Y-14740476D02*
X9780952Y-14540476D01*
X9866667Y-14740476D02*
X9866667Y-14635714D01*
X9857143Y-14616667D01*
X9838095Y-14607143D01*
X9809524Y-14607143D01*
X9790476Y-14616667D01*
X9780952Y-14626190D01*
X9990476Y-14740476D02*
X9971429Y-14730952D01*
X9961905Y-14721428D01*
X9952381Y-14702381D01*
X9952381Y-14645238D01*
X9961905Y-14626190D01*
X9971429Y-14616667D01*
X9990476Y-14607143D01*
X10019048Y-14607143D01*
X10038095Y-14616667D01*
X10047619Y-14626190D01*
X10057143Y-14645238D01*
X10057143Y-14702381D01*
X10047619Y-14721428D01*
X10038095Y-14730952D01*
X10019048Y-14740476D01*
X9990476Y-14740476D01*
X10171429Y-14740476D02*
X10152381Y-14730952D01*
X10142857Y-14711905D01*
X10142857Y-14540476D01*
X10323810Y-14730952D02*
X10304762Y-14740476D01*
X10266667Y-14740476D01*
X10247619Y-14730952D01*
X10238095Y-14711905D01*
X10238095Y-14635714D01*
X10247619Y-14616667D01*
X10266667Y-14607143D01*
X10304762Y-14607143D01*
X10323810Y-14616667D01*
X10333333Y-14635714D01*
X10333333Y-14654762D01*
X10238095Y-14673809D01*
X10409524Y-14730952D02*
X10428571Y-14740476D01*
X10466667Y-14740476D01*
X10485714Y-14730952D01*
X10495238Y-14711905D01*
X10495238Y-14702381D01*
X10485714Y-14683333D01*
X10466667Y-14673809D01*
X10438095Y-14673809D01*
X10419048Y-14664286D01*
X10409524Y-14645238D01*
X10409524Y-14635714D01*
X10419048Y-14616667D01*
X10438095Y-14607143D01*
X10466667Y-14607143D01*
X10485714Y-14616667D01*
X10561905Y-14816667D02*
X10571429Y-14807143D01*
X10590476Y-14778571D01*
X10600000Y-14759524D01*
X10609524Y-14730952D01*
X10619048Y-14683333D01*
X10619048Y-14645238D01*
X10609524Y-14597619D01*
X10600000Y-14569048D01*
X10590476Y-14550000D01*
X10571429Y-14521428D01*
X10561905Y-14511905D01*
D13*
X5790000Y-14914000D02*
G75*
G03*
X5790000Y-14914000I-40000J0D01*
G01*
D11*
X6085714Y-14804476D02*
X6104762Y-14804476D01*
X6123809Y-14814000D01*
X6133333Y-14823524D01*
X6142857Y-14842571D01*
X6152381Y-14880667D01*
X6152381Y-14928286D01*
X6142857Y-14966381D01*
X6133333Y-14985428D01*
X6123809Y-14994952D01*
X6104762Y-15004476D01*
X6085714Y-15004476D01*
X6066667Y-14994952D01*
X6057143Y-14985428D01*
X6047619Y-14966381D01*
X6038095Y-14928286D01*
X6038095Y-14880667D01*
X6047619Y-14842571D01*
X6057143Y-14823524D01*
X6066667Y-14814000D01*
X6085714Y-14804476D01*
X6238095Y-14985428D02*
X6247619Y-14994952D01*
X6238095Y-15004476D01*
X6228571Y-14994952D01*
X6238095Y-14985428D01*
X6238095Y-15004476D01*
X6361905Y-14890190D02*
X6342857Y-14880667D01*
X6333333Y-14871143D01*
X6323809Y-14852095D01*
X6323809Y-14842571D01*
X6333333Y-14823524D01*
X6342857Y-14814000D01*
X6361905Y-14804476D01*
X6400000Y-14804476D01*
X6419048Y-14814000D01*
X6428571Y-14823524D01*
X6438095Y-14842571D01*
X6438095Y-14852095D01*
X6428571Y-14871143D01*
X6419048Y-14880667D01*
X6400000Y-14890190D01*
X6361905Y-14890190D01*
X6342857Y-14899714D01*
X6333333Y-14909238D01*
X6323809Y-14928286D01*
X6323809Y-14966381D01*
X6333333Y-14985428D01*
X6342857Y-14994952D01*
X6361905Y-15004476D01*
X6400000Y-15004476D01*
X6419048Y-14994952D01*
X6428571Y-14985428D01*
X6438095Y-14966381D01*
X6438095Y-14928286D01*
X6428571Y-14909238D01*
X6419048Y-14899714D01*
X6400000Y-14890190D01*
X6561905Y-14804476D02*
X6580952Y-14804476D01*
X6600000Y-14814000D01*
X6609524Y-14823524D01*
X6619048Y-14842571D01*
X6628571Y-14880667D01*
X6628571Y-14928286D01*
X6619048Y-14966381D01*
X6609524Y-14985428D01*
X6600000Y-14994952D01*
X6580952Y-15004476D01*
X6561905Y-15004476D01*
X6542857Y-14994952D01*
X6533333Y-14985428D01*
X6523809Y-14966381D01*
X6514286Y-14928286D01*
X6514286Y-14880667D01*
X6523809Y-14842571D01*
X6533333Y-14823524D01*
X6542857Y-14814000D01*
X6561905Y-14804476D01*
X6752381Y-14804476D02*
X6771428Y-14804476D01*
X6790476Y-14814000D01*
X6800000Y-14823524D01*
X6809524Y-14842571D01*
X6819048Y-14880667D01*
X6819048Y-14928286D01*
X6809524Y-14966381D01*
X6800000Y-14985428D01*
X6790476Y-14994952D01*
X6771428Y-15004476D01*
X6752381Y-15004476D01*
X6733333Y-14994952D01*
X6723809Y-14985428D01*
X6714286Y-14966381D01*
X6704762Y-14928286D01*
X6704762Y-14880667D01*
X6714286Y-14842571D01*
X6723809Y-14823524D01*
X6733333Y-14814000D01*
X6752381Y-14804476D01*
X6904762Y-15004476D02*
X6904762Y-14871143D01*
X6904762Y-14890190D02*
X6914286Y-14880667D01*
X6933333Y-14871143D01*
X6961905Y-14871143D01*
X6980952Y-14880667D01*
X6990476Y-14899714D01*
X6990476Y-15004476D01*
X6990476Y-14899714D02*
X7000000Y-14880667D01*
X7019048Y-14871143D01*
X7047619Y-14871143D01*
X7066667Y-14880667D01*
X7076190Y-14899714D01*
X7076190Y-15004476D01*
X7171428Y-15004476D02*
X7171428Y-14871143D01*
X7171428Y-14890190D02*
X7180952Y-14880667D01*
X7200000Y-14871143D01*
X7228571Y-14871143D01*
X7247619Y-14880667D01*
X7257143Y-14899714D01*
X7257143Y-15004476D01*
X7257143Y-14899714D02*
X7266667Y-14880667D01*
X7285714Y-14871143D01*
X7314286Y-14871143D01*
X7333333Y-14880667D01*
X7342857Y-14899714D01*
X7342857Y-15004476D01*
X7733333Y-14794952D02*
X7561905Y-15052095D01*
X7990476Y-14804476D02*
X8009524Y-14804476D01*
X8028571Y-14814000D01*
X8038095Y-14823524D01*
X8047619Y-14842571D01*
X8057143Y-14880667D01*
X8057143Y-14928286D01*
X8047619Y-14966381D01*
X8038095Y-14985428D01*
X8028571Y-14994952D01*
X8009524Y-15004476D01*
X7990476Y-15004476D01*
X7971428Y-14994952D01*
X7961905Y-14985428D01*
X7952381Y-14966381D01*
X7942857Y-14928286D01*
X7942857Y-14880667D01*
X7952381Y-14842571D01*
X7961905Y-14823524D01*
X7971428Y-14814000D01*
X7990476Y-14804476D01*
X8142857Y-14985428D02*
X8152381Y-14994952D01*
X8142857Y-15004476D01*
X8133333Y-14994952D01*
X8142857Y-14985428D01*
X8142857Y-15004476D01*
X8276190Y-14804476D02*
X8295238Y-14804476D01*
X8314286Y-14814000D01*
X8323809Y-14823524D01*
X8333333Y-14842571D01*
X8342857Y-14880667D01*
X8342857Y-14928286D01*
X8333333Y-14966381D01*
X8323809Y-14985428D01*
X8314286Y-14994952D01*
X8295238Y-15004476D01*
X8276190Y-15004476D01*
X8257143Y-14994952D01*
X8247619Y-14985428D01*
X8238095Y-14966381D01*
X8228571Y-14928286D01*
X8228571Y-14880667D01*
X8238095Y-14842571D01*
X8247619Y-14823524D01*
X8257143Y-14814000D01*
X8276190Y-14804476D01*
X8409524Y-14804476D02*
X8533333Y-14804476D01*
X8466667Y-14880667D01*
X8495238Y-14880667D01*
X8514286Y-14890190D01*
X8523810Y-14899714D01*
X8533333Y-14918762D01*
X8533333Y-14966381D01*
X8523810Y-14985428D01*
X8514286Y-14994952D01*
X8495238Y-15004476D01*
X8438095Y-15004476D01*
X8419048Y-14994952D01*
X8409524Y-14985428D01*
X8723810Y-15004476D02*
X8609524Y-15004476D01*
X8666667Y-15004476D02*
X8666667Y-14804476D01*
X8647619Y-14833048D01*
X8628571Y-14852095D01*
X8609524Y-14861619D01*
X8904762Y-14804476D02*
X8809524Y-14804476D01*
X8800000Y-14899714D01*
X8809524Y-14890190D01*
X8828571Y-14880667D01*
X8876190Y-14880667D01*
X8895238Y-14890190D01*
X8904762Y-14899714D01*
X8914286Y-14918762D01*
X8914286Y-14966381D01*
X8904762Y-14985428D01*
X8895238Y-14994952D01*
X8876190Y-15004476D01*
X8828571Y-15004476D01*
X8809524Y-14994952D01*
X8800000Y-14985428D01*
X8990476Y-14804476D02*
X8990476Y-14842571D01*
X9066667Y-14804476D02*
X9066667Y-14842571D01*
X9361905Y-15080667D02*
X9352381Y-15071143D01*
X9333333Y-15042571D01*
X9323810Y-15023524D01*
X9314286Y-14994952D01*
X9304762Y-14947333D01*
X9304762Y-14909238D01*
X9314286Y-14861619D01*
X9323810Y-14833048D01*
X9333333Y-14814000D01*
X9352381Y-14785428D01*
X9361905Y-14775905D01*
X9466667Y-14890190D02*
X9447619Y-14880667D01*
X9438095Y-14871143D01*
X9428571Y-14852095D01*
X9428571Y-14842571D01*
X9438095Y-14823524D01*
X9447619Y-14814000D01*
X9466667Y-14804476D01*
X9504762Y-14804476D01*
X9523810Y-14814000D01*
X9533333Y-14823524D01*
X9542857Y-14842571D01*
X9542857Y-14852095D01*
X9533333Y-14871143D01*
X9523810Y-14880667D01*
X9504762Y-14890190D01*
X9466667Y-14890190D01*
X9447619Y-14899714D01*
X9438095Y-14909238D01*
X9428571Y-14928286D01*
X9428571Y-14966381D01*
X9438095Y-14985428D01*
X9447619Y-14994952D01*
X9466667Y-15004476D01*
X9504762Y-15004476D01*
X9523810Y-14994952D01*
X9533333Y-14985428D01*
X9542857Y-14966381D01*
X9542857Y-14928286D01*
X9533333Y-14909238D01*
X9523810Y-14899714D01*
X9504762Y-14890190D01*
X9666667Y-14804476D02*
X9685714Y-14804476D01*
X9704762Y-14814000D01*
X9714286Y-14823524D01*
X9723810Y-14842571D01*
X9733333Y-14880667D01*
X9733333Y-14928286D01*
X9723810Y-14966381D01*
X9714286Y-14985428D01*
X9704762Y-14994952D01*
X9685714Y-15004476D01*
X9666667Y-15004476D01*
X9647619Y-14994952D01*
X9638095Y-14985428D01*
X9628571Y-14966381D01*
X9619048Y-14928286D01*
X9619048Y-14880667D01*
X9628571Y-14842571D01*
X9638095Y-14823524D01*
X9647619Y-14814000D01*
X9666667Y-14804476D01*
X9971429Y-15004476D02*
X9971429Y-14804476D01*
X10057143Y-15004476D02*
X10057143Y-14899714D01*
X10047619Y-14880667D01*
X10028571Y-14871143D01*
X10000000Y-14871143D01*
X9980952Y-14880667D01*
X9971429Y-14890190D01*
X10180952Y-15004476D02*
X10161905Y-14994952D01*
X10152381Y-14985428D01*
X10142857Y-14966381D01*
X10142857Y-14909238D01*
X10152381Y-14890190D01*
X10161905Y-14880667D01*
X10180952Y-14871143D01*
X10209524Y-14871143D01*
X10228571Y-14880667D01*
X10238095Y-14890190D01*
X10247619Y-14909238D01*
X10247619Y-14966381D01*
X10238095Y-14985428D01*
X10228571Y-14994952D01*
X10209524Y-15004476D01*
X10180952Y-15004476D01*
X10361905Y-15004476D02*
X10342857Y-14994952D01*
X10333333Y-14975905D01*
X10333333Y-14804476D01*
X10514286Y-14994952D02*
X10495238Y-15004476D01*
X10457143Y-15004476D01*
X10438095Y-14994952D01*
X10428571Y-14975905D01*
X10428571Y-14899714D01*
X10438095Y-14880667D01*
X10457143Y-14871143D01*
X10495238Y-14871143D01*
X10514286Y-14880667D01*
X10523810Y-14899714D01*
X10523810Y-14918762D01*
X10428571Y-14937809D01*
X10600000Y-14994952D02*
X10619048Y-15004476D01*
X10657143Y-15004476D01*
X10676190Y-14994952D01*
X10685714Y-14975905D01*
X10685714Y-14966381D01*
X10676190Y-14947333D01*
X10657143Y-14937809D01*
X10628571Y-14937809D01*
X10609524Y-14928286D01*
X10600000Y-14909238D01*
X10600000Y-14899714D01*
X10609524Y-14880667D01*
X10628571Y-14871143D01*
X10657143Y-14871143D01*
X10676190Y-14880667D01*
X10752381Y-15080667D02*
X10761905Y-15071143D01*
X10780952Y-15042571D01*
X10790476Y-15023524D01*
X10800000Y-14994952D01*
X10809524Y-14947333D01*
X10809524Y-14909238D01*
X10800000Y-14861619D01*
X10790476Y-14833048D01*
X10780952Y-14814000D01*
X10761905Y-14785428D01*
X10752381Y-14775905D01*
D14*
X5745000Y-15133000D02*
X5745000Y-15223000D01*
X5700000Y-15178000D02*
X5790000Y-15178000D01*
D11*
X6085714Y-15068476D02*
X6104762Y-15068476D01*
X6123809Y-15078000D01*
X6133333Y-15087524D01*
X6142857Y-15106571D01*
X6152381Y-15144667D01*
X6152381Y-15192286D01*
X6142857Y-15230381D01*
X6133333Y-15249428D01*
X6123809Y-15258952D01*
X6104762Y-15268476D01*
X6085714Y-15268476D01*
X6066667Y-15258952D01*
X6057143Y-15249428D01*
X6047619Y-15230381D01*
X6038095Y-15192286D01*
X6038095Y-15144667D01*
X6047619Y-15106571D01*
X6057143Y-15087524D01*
X6066667Y-15078000D01*
X6085714Y-15068476D01*
X6238095Y-15249428D02*
X6247619Y-15258952D01*
X6238095Y-15268476D01*
X6228571Y-15258952D01*
X6238095Y-15249428D01*
X6238095Y-15268476D01*
X6342857Y-15268476D02*
X6380952Y-15268476D01*
X6400000Y-15258952D01*
X6409524Y-15249428D01*
X6428571Y-15220857D01*
X6438095Y-15182762D01*
X6438095Y-15106571D01*
X6428571Y-15087524D01*
X6419048Y-15078000D01*
X6400000Y-15068476D01*
X6361905Y-15068476D01*
X6342857Y-15078000D01*
X6333333Y-15087524D01*
X6323809Y-15106571D01*
X6323809Y-15154190D01*
X6333333Y-15173238D01*
X6342857Y-15182762D01*
X6361905Y-15192286D01*
X6400000Y-15192286D01*
X6419048Y-15182762D01*
X6428571Y-15173238D01*
X6438095Y-15154190D01*
X6561905Y-15068476D02*
X6580952Y-15068476D01*
X6600000Y-15078000D01*
X6609524Y-15087524D01*
X6619048Y-15106571D01*
X6628571Y-15144667D01*
X6628571Y-15192286D01*
X6619048Y-15230381D01*
X6609524Y-15249428D01*
X6600000Y-15258952D01*
X6580952Y-15268476D01*
X6561905Y-15268476D01*
X6542857Y-15258952D01*
X6533333Y-15249428D01*
X6523809Y-15230381D01*
X6514286Y-15192286D01*
X6514286Y-15144667D01*
X6523809Y-15106571D01*
X6533333Y-15087524D01*
X6542857Y-15078000D01*
X6561905Y-15068476D01*
X6752381Y-15068476D02*
X6771428Y-15068476D01*
X6790476Y-15078000D01*
X6800000Y-15087524D01*
X6809524Y-15106571D01*
X6819048Y-15144667D01*
X6819048Y-15192286D01*
X6809524Y-15230381D01*
X6800000Y-15249428D01*
X6790476Y-15258952D01*
X6771428Y-15268476D01*
X6752381Y-15268476D01*
X6733333Y-15258952D01*
X6723809Y-15249428D01*
X6714286Y-15230381D01*
X6704762Y-15192286D01*
X6704762Y-15144667D01*
X6714286Y-15106571D01*
X6723809Y-15087524D01*
X6733333Y-15078000D01*
X6752381Y-15068476D01*
X6904762Y-15268476D02*
X6904762Y-15135143D01*
X6904762Y-15154190D02*
X6914286Y-15144667D01*
X6933333Y-15135143D01*
X6961905Y-15135143D01*
X6980952Y-15144667D01*
X6990476Y-15163714D01*
X6990476Y-15268476D01*
X6990476Y-15163714D02*
X7000000Y-15144667D01*
X7019048Y-15135143D01*
X7047619Y-15135143D01*
X7066667Y-15144667D01*
X7076190Y-15163714D01*
X7076190Y-15268476D01*
X7171428Y-15268476D02*
X7171428Y-15135143D01*
X7171428Y-15154190D02*
X7180952Y-15144667D01*
X7200000Y-15135143D01*
X7228571Y-15135143D01*
X7247619Y-15144667D01*
X7257143Y-15163714D01*
X7257143Y-15268476D01*
X7257143Y-15163714D02*
X7266667Y-15144667D01*
X7285714Y-15135143D01*
X7314286Y-15135143D01*
X7333333Y-15144667D01*
X7342857Y-15163714D01*
X7342857Y-15268476D01*
X7733333Y-15058952D02*
X7561905Y-15316095D01*
X7990476Y-15068476D02*
X8009524Y-15068476D01*
X8028571Y-15078000D01*
X8038095Y-15087524D01*
X8047619Y-15106571D01*
X8057143Y-15144667D01*
X8057143Y-15192286D01*
X8047619Y-15230381D01*
X8038095Y-15249428D01*
X8028571Y-15258952D01*
X8009524Y-15268476D01*
X7990476Y-15268476D01*
X7971428Y-15258952D01*
X7961905Y-15249428D01*
X7952381Y-15230381D01*
X7942857Y-15192286D01*
X7942857Y-15144667D01*
X7952381Y-15106571D01*
X7961905Y-15087524D01*
X7971428Y-15078000D01*
X7990476Y-15068476D01*
X8142857Y-15249428D02*
X8152381Y-15258952D01*
X8142857Y-15268476D01*
X8133333Y-15258952D01*
X8142857Y-15249428D01*
X8142857Y-15268476D01*
X8276190Y-15068476D02*
X8295238Y-15068476D01*
X8314286Y-15078000D01*
X8323809Y-15087524D01*
X8333333Y-15106571D01*
X8342857Y-15144667D01*
X8342857Y-15192286D01*
X8333333Y-15230381D01*
X8323809Y-15249428D01*
X8314286Y-15258952D01*
X8295238Y-15268476D01*
X8276190Y-15268476D01*
X8257143Y-15258952D01*
X8247619Y-15249428D01*
X8238095Y-15230381D01*
X8228571Y-15192286D01*
X8228571Y-15144667D01*
X8238095Y-15106571D01*
X8247619Y-15087524D01*
X8257143Y-15078000D01*
X8276190Y-15068476D01*
X8409524Y-15068476D02*
X8533333Y-15068476D01*
X8466667Y-15144667D01*
X8495238Y-15144667D01*
X8514286Y-15154190D01*
X8523810Y-15163714D01*
X8533333Y-15182762D01*
X8533333Y-15230381D01*
X8523810Y-15249428D01*
X8514286Y-15258952D01*
X8495238Y-15268476D01*
X8438095Y-15268476D01*
X8419048Y-15258952D01*
X8409524Y-15249428D01*
X8714286Y-15068476D02*
X8619048Y-15068476D01*
X8609524Y-15163714D01*
X8619048Y-15154190D01*
X8638095Y-15144667D01*
X8685714Y-15144667D01*
X8704762Y-15154190D01*
X8714286Y-15163714D01*
X8723810Y-15182762D01*
X8723810Y-15230381D01*
X8714286Y-15249428D01*
X8704762Y-15258952D01*
X8685714Y-15268476D01*
X8638095Y-15268476D01*
X8619048Y-15258952D01*
X8609524Y-15249428D01*
X8895238Y-15135143D02*
X8895238Y-15268476D01*
X8847619Y-15058952D02*
X8800000Y-15201809D01*
X8923810Y-15201809D01*
X8990476Y-15068476D02*
X8990476Y-15106571D01*
X9066667Y-15068476D02*
X9066667Y-15106571D01*
X9361905Y-15344667D02*
X9352381Y-15335143D01*
X9333333Y-15306571D01*
X9323810Y-15287524D01*
X9314286Y-15258952D01*
X9304762Y-15211333D01*
X9304762Y-15173238D01*
X9314286Y-15125619D01*
X9323810Y-15097048D01*
X9333333Y-15078000D01*
X9352381Y-15049428D01*
X9361905Y-15039905D01*
X9466667Y-15154190D02*
X9447619Y-15144667D01*
X9438095Y-15135143D01*
X9428571Y-15116095D01*
X9428571Y-15106571D01*
X9438095Y-15087524D01*
X9447619Y-15078000D01*
X9466667Y-15068476D01*
X9504762Y-15068476D01*
X9523810Y-15078000D01*
X9533333Y-15087524D01*
X9542857Y-15106571D01*
X9542857Y-15116095D01*
X9533333Y-15135143D01*
X9523810Y-15144667D01*
X9504762Y-15154190D01*
X9466667Y-15154190D01*
X9447619Y-15163714D01*
X9438095Y-15173238D01*
X9428571Y-15192286D01*
X9428571Y-15230381D01*
X9438095Y-15249428D01*
X9447619Y-15258952D01*
X9466667Y-15268476D01*
X9504762Y-15268476D01*
X9523810Y-15258952D01*
X9533333Y-15249428D01*
X9542857Y-15230381D01*
X9542857Y-15192286D01*
X9533333Y-15173238D01*
X9523810Y-15163714D01*
X9504762Y-15154190D01*
X9780952Y-15268476D02*
X9780952Y-15068476D01*
X9866667Y-15268476D02*
X9866667Y-15163714D01*
X9857143Y-15144667D01*
X9838095Y-15135143D01*
X9809524Y-15135143D01*
X9790476Y-15144667D01*
X9780952Y-15154190D01*
X9990476Y-15268476D02*
X9971429Y-15258952D01*
X9961905Y-15249428D01*
X9952381Y-15230381D01*
X9952381Y-15173238D01*
X9961905Y-15154190D01*
X9971429Y-15144667D01*
X9990476Y-15135143D01*
X10019048Y-15135143D01*
X10038095Y-15144667D01*
X10047619Y-15154190D01*
X10057143Y-15173238D01*
X10057143Y-15230381D01*
X10047619Y-15249428D01*
X10038095Y-15258952D01*
X10019048Y-15268476D01*
X9990476Y-15268476D01*
X10171429Y-15268476D02*
X10152381Y-15258952D01*
X10142857Y-15239905D01*
X10142857Y-15068476D01*
X10323810Y-15258952D02*
X10304762Y-15268476D01*
X10266667Y-15268476D01*
X10247619Y-15258952D01*
X10238095Y-15239905D01*
X10238095Y-15163714D01*
X10247619Y-15144667D01*
X10266667Y-15135143D01*
X10304762Y-15135143D01*
X10323810Y-15144667D01*
X10333333Y-15163714D01*
X10333333Y-15182762D01*
X10238095Y-15201809D01*
X10409524Y-15258952D02*
X10428571Y-15268476D01*
X10466667Y-15268476D01*
X10485714Y-15258952D01*
X10495238Y-15239905D01*
X10495238Y-15230381D01*
X10485714Y-15211333D01*
X10466667Y-15201809D01*
X10438095Y-15201809D01*
X10419048Y-15192286D01*
X10409524Y-15173238D01*
X10409524Y-15163714D01*
X10419048Y-15144667D01*
X10438095Y-15135143D01*
X10466667Y-15135143D01*
X10485714Y-15144667D01*
X10561905Y-15344667D02*
X10571429Y-15335143D01*
X10590476Y-15306571D01*
X10600000Y-15287524D01*
X10609524Y-15258952D01*
X10619048Y-15211333D01*
X10619048Y-15173238D01*
X10609524Y-15125619D01*
X10600000Y-15097048D01*
X10590476Y-15078000D01*
X10571429Y-15049428D01*
X10561905Y-15039905D01*
D15*
X5775356Y-15477356D02*
X5775356Y-15406644D01*
X5704644Y-15406644D01*
X5704644Y-15477356D01*
X5775356Y-15477356D01*
D11*
X6152381Y-15532476D02*
X6038095Y-15532476D01*
X6095238Y-15532476D02*
X6095238Y-15332476D01*
X6076190Y-15361048D01*
X6057143Y-15380095D01*
X6038095Y-15389619D01*
X6238095Y-15513428D02*
X6247619Y-15522952D01*
X6238095Y-15532476D01*
X6228571Y-15522952D01*
X6238095Y-15513428D01*
X6238095Y-15532476D01*
X6371428Y-15332476D02*
X6390476Y-15332476D01*
X6409524Y-15342000D01*
X6419048Y-15351524D01*
X6428571Y-15370571D01*
X6438095Y-15408667D01*
X6438095Y-15456286D01*
X6428571Y-15494381D01*
X6419048Y-15513428D01*
X6409524Y-15522952D01*
X6390476Y-15532476D01*
X6371428Y-15532476D01*
X6352381Y-15522952D01*
X6342857Y-15513428D01*
X6333333Y-15494381D01*
X6323809Y-15456286D01*
X6323809Y-15408667D01*
X6333333Y-15370571D01*
X6342857Y-15351524D01*
X6352381Y-15342000D01*
X6371428Y-15332476D01*
X6561905Y-15332476D02*
X6580952Y-15332476D01*
X6600000Y-15342000D01*
X6609524Y-15351524D01*
X6619048Y-15370571D01*
X6628571Y-15408667D01*
X6628571Y-15456286D01*
X6619048Y-15494381D01*
X6609524Y-15513428D01*
X6600000Y-15522952D01*
X6580952Y-15532476D01*
X6561905Y-15532476D01*
X6542857Y-15522952D01*
X6533333Y-15513428D01*
X6523809Y-15494381D01*
X6514286Y-15456286D01*
X6514286Y-15408667D01*
X6523809Y-15370571D01*
X6533333Y-15351524D01*
X6542857Y-15342000D01*
X6561905Y-15332476D01*
X6752381Y-15332476D02*
X6771428Y-15332476D01*
X6790476Y-15342000D01*
X6800000Y-15351524D01*
X6809524Y-15370571D01*
X6819048Y-15408667D01*
X6819048Y-15456286D01*
X6809524Y-15494381D01*
X6800000Y-15513428D01*
X6790476Y-15522952D01*
X6771428Y-15532476D01*
X6752381Y-15532476D01*
X6733333Y-15522952D01*
X6723809Y-15513428D01*
X6714286Y-15494381D01*
X6704762Y-15456286D01*
X6704762Y-15408667D01*
X6714286Y-15370571D01*
X6723809Y-15351524D01*
X6733333Y-15342000D01*
X6752381Y-15332476D01*
X6904762Y-15532476D02*
X6904762Y-15399143D01*
X6904762Y-15418190D02*
X6914286Y-15408667D01*
X6933333Y-15399143D01*
X6961905Y-15399143D01*
X6980952Y-15408667D01*
X6990476Y-15427714D01*
X6990476Y-15532476D01*
X6990476Y-15427714D02*
X7000000Y-15408667D01*
X7019048Y-15399143D01*
X7047619Y-15399143D01*
X7066667Y-15408667D01*
X7076190Y-15427714D01*
X7076190Y-15532476D01*
X7171428Y-15532476D02*
X7171428Y-15399143D01*
X7171428Y-15418190D02*
X7180952Y-15408667D01*
X7200000Y-15399143D01*
X7228571Y-15399143D01*
X7247619Y-15408667D01*
X7257143Y-15427714D01*
X7257143Y-15532476D01*
X7257143Y-15427714D02*
X7266667Y-15408667D01*
X7285714Y-15399143D01*
X7314286Y-15399143D01*
X7333333Y-15408667D01*
X7342857Y-15427714D01*
X7342857Y-15532476D01*
X7733333Y-15322952D02*
X7561905Y-15580095D01*
X7990476Y-15332476D02*
X8009524Y-15332476D01*
X8028571Y-15342000D01*
X8038095Y-15351524D01*
X8047619Y-15370571D01*
X8057143Y-15408667D01*
X8057143Y-15456286D01*
X8047619Y-15494381D01*
X8038095Y-15513428D01*
X8028571Y-15522952D01*
X8009524Y-15532476D01*
X7990476Y-15532476D01*
X7971428Y-15522952D01*
X7961905Y-15513428D01*
X7952381Y-15494381D01*
X7942857Y-15456286D01*
X7942857Y-15408667D01*
X7952381Y-15370571D01*
X7961905Y-15351524D01*
X7971428Y-15342000D01*
X7990476Y-15332476D01*
X8142857Y-15513428D02*
X8152381Y-15522952D01*
X8142857Y-15532476D01*
X8133333Y-15522952D01*
X8142857Y-15513428D01*
X8142857Y-15532476D01*
X8276190Y-15332476D02*
X8295238Y-15332476D01*
X8314286Y-15342000D01*
X8323809Y-15351524D01*
X8333333Y-15370571D01*
X8342857Y-15408667D01*
X8342857Y-15456286D01*
X8333333Y-15494381D01*
X8323809Y-15513428D01*
X8314286Y-15522952D01*
X8295238Y-15532476D01*
X8276190Y-15532476D01*
X8257143Y-15522952D01*
X8247619Y-15513428D01*
X8238095Y-15494381D01*
X8228571Y-15456286D01*
X8228571Y-15408667D01*
X8238095Y-15370571D01*
X8247619Y-15351524D01*
X8257143Y-15342000D01*
X8276190Y-15332476D01*
X8409524Y-15332476D02*
X8533333Y-15332476D01*
X8466667Y-15408667D01*
X8495238Y-15408667D01*
X8514286Y-15418190D01*
X8523810Y-15427714D01*
X8533333Y-15446762D01*
X8533333Y-15494381D01*
X8523810Y-15513428D01*
X8514286Y-15522952D01*
X8495238Y-15532476D01*
X8438095Y-15532476D01*
X8419048Y-15522952D01*
X8409524Y-15513428D01*
X8628571Y-15532476D02*
X8666667Y-15532476D01*
X8685714Y-15522952D01*
X8695238Y-15513428D01*
X8714286Y-15484857D01*
X8723810Y-15446762D01*
X8723810Y-15370571D01*
X8714286Y-15351524D01*
X8704762Y-15342000D01*
X8685714Y-15332476D01*
X8647619Y-15332476D01*
X8628571Y-15342000D01*
X8619048Y-15351524D01*
X8609524Y-15370571D01*
X8609524Y-15418190D01*
X8619048Y-15437238D01*
X8628571Y-15446762D01*
X8647619Y-15456286D01*
X8685714Y-15456286D01*
X8704762Y-15446762D01*
X8714286Y-15437238D01*
X8723810Y-15418190D01*
X8895238Y-15399143D02*
X8895238Y-15532476D01*
X8847619Y-15322952D02*
X8800000Y-15465809D01*
X8923810Y-15465809D01*
X8990476Y-15332476D02*
X8990476Y-15370571D01*
X9066667Y-15332476D02*
X9066667Y-15370571D01*
X9361905Y-15608667D02*
X9352381Y-15599143D01*
X9333333Y-15570571D01*
X9323810Y-15551524D01*
X9314286Y-15522952D01*
X9304762Y-15475333D01*
X9304762Y-15437238D01*
X9314286Y-15389619D01*
X9323810Y-15361048D01*
X9333333Y-15342000D01*
X9352381Y-15313428D01*
X9361905Y-15303905D01*
X9428571Y-15351524D02*
X9438095Y-15342000D01*
X9457143Y-15332476D01*
X9504762Y-15332476D01*
X9523810Y-15342000D01*
X9533333Y-15351524D01*
X9542857Y-15370571D01*
X9542857Y-15389619D01*
X9533333Y-15418190D01*
X9419048Y-15532476D01*
X9542857Y-15532476D01*
X9714286Y-15399143D02*
X9714286Y-15532476D01*
X9666667Y-15322952D02*
X9619048Y-15465809D01*
X9742857Y-15465809D01*
X9971429Y-15532476D02*
X9971429Y-15332476D01*
X10057143Y-15532476D02*
X10057143Y-15427714D01*
X10047619Y-15408667D01*
X10028571Y-15399143D01*
X10000000Y-15399143D01*
X9980952Y-15408667D01*
X9971429Y-15418190D01*
X10180952Y-15532476D02*
X10161905Y-15522952D01*
X10152381Y-15513428D01*
X10142857Y-15494381D01*
X10142857Y-15437238D01*
X10152381Y-15418190D01*
X10161905Y-15408667D01*
X10180952Y-15399143D01*
X10209524Y-15399143D01*
X10228571Y-15408667D01*
X10238095Y-15418190D01*
X10247619Y-15437238D01*
X10247619Y-15494381D01*
X10238095Y-15513428D01*
X10228571Y-15522952D01*
X10209524Y-15532476D01*
X10180952Y-15532476D01*
X10361905Y-15532476D02*
X10342857Y-15522952D01*
X10333333Y-15503905D01*
X10333333Y-15332476D01*
X10514286Y-15522952D02*
X10495238Y-15532476D01*
X10457143Y-15532476D01*
X10438095Y-15522952D01*
X10428571Y-15503905D01*
X10428571Y-15427714D01*
X10438095Y-15408667D01*
X10457143Y-15399143D01*
X10495238Y-15399143D01*
X10514286Y-15408667D01*
X10523810Y-15427714D01*
X10523810Y-15446762D01*
X10428571Y-15465809D01*
X10600000Y-15522952D02*
X10619048Y-15532476D01*
X10657143Y-15532476D01*
X10676190Y-15522952D01*
X10685714Y-15503905D01*
X10685714Y-15494381D01*
X10676190Y-15475333D01*
X10657143Y-15465809D01*
X10628571Y-15465809D01*
X10609524Y-15456286D01*
X10600000Y-15437238D01*
X10600000Y-15427714D01*
X10609524Y-15408667D01*
X10628571Y-15399143D01*
X10657143Y-15399143D01*
X10676190Y-15408667D01*
X10752381Y-15608667D02*
X10761905Y-15599143D01*
X10780952Y-15570571D01*
X10790476Y-15551524D01*
X10800000Y-15522952D01*
X10809524Y-15475333D01*
X10809524Y-15437238D01*
X10800000Y-15389619D01*
X10790476Y-15361048D01*
X10780952Y-15342000D01*
X10761905Y-15313428D01*
X10752381Y-15303905D01*
D16*
X5738000Y-15758000D02*
X5790000Y-15706000D01*
X5738000Y-15654000D01*
X5686000Y-15706000D01*
X5738000Y-15758000D01*
D11*
X6152381Y-15796476D02*
X6038095Y-15796476D01*
X6095238Y-15796476D02*
X6095238Y-15596476D01*
X6076190Y-15625048D01*
X6057143Y-15644095D01*
X6038095Y-15653619D01*
X6238095Y-15777428D02*
X6247619Y-15786952D01*
X6238095Y-15796476D01*
X6228571Y-15786952D01*
X6238095Y-15777428D01*
X6238095Y-15796476D01*
X6371428Y-15596476D02*
X6390476Y-15596476D01*
X6409524Y-15606000D01*
X6419048Y-15615524D01*
X6428571Y-15634571D01*
X6438095Y-15672667D01*
X6438095Y-15720286D01*
X6428571Y-15758381D01*
X6419048Y-15777428D01*
X6409524Y-15786952D01*
X6390476Y-15796476D01*
X6371428Y-15796476D01*
X6352381Y-15786952D01*
X6342857Y-15777428D01*
X6333333Y-15758381D01*
X6323809Y-15720286D01*
X6323809Y-15672667D01*
X6333333Y-15634571D01*
X6342857Y-15615524D01*
X6352381Y-15606000D01*
X6371428Y-15596476D01*
X6609524Y-15663143D02*
X6609524Y-15796476D01*
X6561905Y-15586952D02*
X6514286Y-15729809D01*
X6638095Y-15729809D01*
X6752381Y-15596476D02*
X6771428Y-15596476D01*
X6790476Y-15606000D01*
X6800000Y-15615524D01*
X6809524Y-15634571D01*
X6819048Y-15672667D01*
X6819048Y-15720286D01*
X6809524Y-15758381D01*
X6800000Y-15777428D01*
X6790476Y-15786952D01*
X6771428Y-15796476D01*
X6752381Y-15796476D01*
X6733333Y-15786952D01*
X6723809Y-15777428D01*
X6714286Y-15758381D01*
X6704762Y-15720286D01*
X6704762Y-15672667D01*
X6714286Y-15634571D01*
X6723809Y-15615524D01*
X6733333Y-15606000D01*
X6752381Y-15596476D01*
X6904762Y-15796476D02*
X6904762Y-15663143D01*
X6904762Y-15682190D02*
X6914286Y-15672667D01*
X6933333Y-15663143D01*
X6961905Y-15663143D01*
X6980952Y-15672667D01*
X6990476Y-15691714D01*
X6990476Y-15796476D01*
X6990476Y-15691714D02*
X7000000Y-15672667D01*
X7019048Y-15663143D01*
X7047619Y-15663143D01*
X7066667Y-15672667D01*
X7076190Y-15691714D01*
X7076190Y-15796476D01*
X7171428Y-15796476D02*
X7171428Y-15663143D01*
X7171428Y-15682190D02*
X7180952Y-15672667D01*
X7200000Y-15663143D01*
X7228571Y-15663143D01*
X7247619Y-15672667D01*
X7257143Y-15691714D01*
X7257143Y-15796476D01*
X7257143Y-15691714D02*
X7266667Y-15672667D01*
X7285714Y-15663143D01*
X7314286Y-15663143D01*
X7333333Y-15672667D01*
X7342857Y-15691714D01*
X7342857Y-15796476D01*
X7733333Y-15586952D02*
X7561905Y-15844095D01*
X7990476Y-15596476D02*
X8009524Y-15596476D01*
X8028571Y-15606000D01*
X8038095Y-15615524D01*
X8047619Y-15634571D01*
X8057143Y-15672667D01*
X8057143Y-15720286D01*
X8047619Y-15758381D01*
X8038095Y-15777428D01*
X8028571Y-15786952D01*
X8009524Y-15796476D01*
X7990476Y-15796476D01*
X7971428Y-15786952D01*
X7961905Y-15777428D01*
X7952381Y-15758381D01*
X7942857Y-15720286D01*
X7942857Y-15672667D01*
X7952381Y-15634571D01*
X7961905Y-15615524D01*
X7971428Y-15606000D01*
X7990476Y-15596476D01*
X8142857Y-15777428D02*
X8152381Y-15786952D01*
X8142857Y-15796476D01*
X8133333Y-15786952D01*
X8142857Y-15777428D01*
X8142857Y-15796476D01*
X8276190Y-15596476D02*
X8295238Y-15596476D01*
X8314286Y-15606000D01*
X8323809Y-15615524D01*
X8333333Y-15634571D01*
X8342857Y-15672667D01*
X8342857Y-15720286D01*
X8333333Y-15758381D01*
X8323809Y-15777428D01*
X8314286Y-15786952D01*
X8295238Y-15796476D01*
X8276190Y-15796476D01*
X8257143Y-15786952D01*
X8247619Y-15777428D01*
X8238095Y-15758381D01*
X8228571Y-15720286D01*
X8228571Y-15672667D01*
X8238095Y-15634571D01*
X8247619Y-15615524D01*
X8257143Y-15606000D01*
X8276190Y-15596476D01*
X8514286Y-15663143D02*
X8514286Y-15796476D01*
X8466667Y-15586952D02*
X8419048Y-15729809D01*
X8542857Y-15729809D01*
X8657143Y-15596476D02*
X8676190Y-15596476D01*
X8695238Y-15606000D01*
X8704762Y-15615524D01*
X8714286Y-15634571D01*
X8723810Y-15672667D01*
X8723810Y-15720286D01*
X8714286Y-15758381D01*
X8704762Y-15777428D01*
X8695238Y-15786952D01*
X8676190Y-15796476D01*
X8657143Y-15796476D01*
X8638095Y-15786952D01*
X8628571Y-15777428D01*
X8619048Y-15758381D01*
X8609524Y-15720286D01*
X8609524Y-15672667D01*
X8619048Y-15634571D01*
X8628571Y-15615524D01*
X8638095Y-15606000D01*
X8657143Y-15596476D01*
X8819048Y-15796476D02*
X8857143Y-15796476D01*
X8876190Y-15786952D01*
X8885714Y-15777428D01*
X8904762Y-15748857D01*
X8914286Y-15710762D01*
X8914286Y-15634571D01*
X8904762Y-15615524D01*
X8895238Y-15606000D01*
X8876190Y-15596476D01*
X8838095Y-15596476D01*
X8819048Y-15606000D01*
X8809524Y-15615524D01*
X8800000Y-15634571D01*
X8800000Y-15682190D01*
X8809524Y-15701238D01*
X8819048Y-15710762D01*
X8838095Y-15720286D01*
X8876190Y-15720286D01*
X8895238Y-15710762D01*
X8904762Y-15701238D01*
X8914286Y-15682190D01*
X8990476Y-15596476D02*
X8990476Y-15634571D01*
X9066667Y-15596476D02*
X9066667Y-15634571D01*
X9361905Y-15872667D02*
X9352381Y-15863143D01*
X9333333Y-15834571D01*
X9323810Y-15815524D01*
X9314286Y-15786952D01*
X9304762Y-15739333D01*
X9304762Y-15701238D01*
X9314286Y-15653619D01*
X9323810Y-15625048D01*
X9333333Y-15606000D01*
X9352381Y-15577428D01*
X9361905Y-15567905D01*
X9419048Y-15596476D02*
X9542857Y-15596476D01*
X9476190Y-15672667D01*
X9504762Y-15672667D01*
X9523810Y-15682190D01*
X9533333Y-15691714D01*
X9542857Y-15710762D01*
X9542857Y-15758381D01*
X9533333Y-15777428D01*
X9523810Y-15786952D01*
X9504762Y-15796476D01*
X9447619Y-15796476D01*
X9428571Y-15786952D01*
X9419048Y-15777428D01*
X9657143Y-15682190D02*
X9638095Y-15672667D01*
X9628571Y-15663143D01*
X9619048Y-15644095D01*
X9619048Y-15634571D01*
X9628571Y-15615524D01*
X9638095Y-15606000D01*
X9657143Y-15596476D01*
X9695238Y-15596476D01*
X9714286Y-15606000D01*
X9723810Y-15615524D01*
X9733333Y-15634571D01*
X9733333Y-15644095D01*
X9723810Y-15663143D01*
X9714286Y-15672667D01*
X9695238Y-15682190D01*
X9657143Y-15682190D01*
X9638095Y-15691714D01*
X9628571Y-15701238D01*
X9619048Y-15720286D01*
X9619048Y-15758381D01*
X9628571Y-15777428D01*
X9638095Y-15786952D01*
X9657143Y-15796476D01*
X9695238Y-15796476D01*
X9714286Y-15786952D01*
X9723810Y-15777428D01*
X9733333Y-15758381D01*
X9733333Y-15720286D01*
X9723810Y-15701238D01*
X9714286Y-15691714D01*
X9695238Y-15682190D01*
X9971429Y-15796476D02*
X9971429Y-15596476D01*
X10057143Y-15796476D02*
X10057143Y-15691714D01*
X10047619Y-15672667D01*
X10028571Y-15663143D01*
X10000000Y-15663143D01*
X9980952Y-15672667D01*
X9971429Y-15682190D01*
X10180952Y-15796476D02*
X10161905Y-15786952D01*
X10152381Y-15777428D01*
X10142857Y-15758381D01*
X10142857Y-15701238D01*
X10152381Y-15682190D01*
X10161905Y-15672667D01*
X10180952Y-15663143D01*
X10209524Y-15663143D01*
X10228571Y-15672667D01*
X10238095Y-15682190D01*
X10247619Y-15701238D01*
X10247619Y-15758381D01*
X10238095Y-15777428D01*
X10228571Y-15786952D01*
X10209524Y-15796476D01*
X10180952Y-15796476D01*
X10361905Y-15796476D02*
X10342857Y-15786952D01*
X10333333Y-15767905D01*
X10333333Y-15596476D01*
X10514286Y-15786952D02*
X10495238Y-15796476D01*
X10457143Y-15796476D01*
X10438095Y-15786952D01*
X10428571Y-15767905D01*
X10428571Y-15691714D01*
X10438095Y-15672667D01*
X10457143Y-15663143D01*
X10495238Y-15663143D01*
X10514286Y-15672667D01*
X10523810Y-15691714D01*
X10523810Y-15710762D01*
X10428571Y-15729809D01*
X10600000Y-15786952D02*
X10619048Y-15796476D01*
X10657143Y-15796476D01*
X10676190Y-15786952D01*
X10685714Y-15767905D01*
X10685714Y-15758381D01*
X10676190Y-15739333D01*
X10657143Y-15729809D01*
X10628571Y-15729809D01*
X10609524Y-15720286D01*
X10600000Y-15701238D01*
X10600000Y-15691714D01*
X10609524Y-15672667D01*
X10628571Y-15663143D01*
X10657143Y-15663143D01*
X10676190Y-15672667D01*
X10752381Y-15872667D02*
X10761905Y-15863143D01*
X10780952Y-15834571D01*
X10790476Y-15815524D01*
X10800000Y-15786952D01*
X10809524Y-15739333D01*
X10809524Y-15701238D01*
X10800000Y-15653619D01*
X10790476Y-15625048D01*
X10780952Y-15606000D01*
X10761905Y-15577428D01*
X10752381Y-15567905D01*
D17*
X5680000Y-15915000D02*
X5790000Y-16025000D01*
X5790000Y-15915000D02*
X5680000Y-16025000D01*
X5790000Y-15970000D02*
G75*
G03*
X5790000Y-15970000I-55000J0D01*
G01*
D11*
X6152381Y-16060476D02*
X6038095Y-16060476D01*
X6095238Y-16060476D02*
X6095238Y-15860476D01*
X6076190Y-15889048D01*
X6057143Y-15908095D01*
X6038095Y-15917619D01*
X6238095Y-16041428D02*
X6247619Y-16050952D01*
X6238095Y-16060476D01*
X6228571Y-16050952D01*
X6238095Y-16041428D01*
X6238095Y-16060476D01*
X6438095Y-16060476D02*
X6323809Y-16060476D01*
X6380952Y-16060476D02*
X6380952Y-15860476D01*
X6361905Y-15889048D01*
X6342857Y-15908095D01*
X6323809Y-15917619D01*
X6561905Y-15860476D02*
X6580952Y-15860476D01*
X6600000Y-15870000D01*
X6609524Y-15879524D01*
X6619048Y-15898571D01*
X6628571Y-15936667D01*
X6628571Y-15984286D01*
X6619048Y-16022381D01*
X6609524Y-16041428D01*
X6600000Y-16050952D01*
X6580952Y-16060476D01*
X6561905Y-16060476D01*
X6542857Y-16050952D01*
X6533333Y-16041428D01*
X6523809Y-16022381D01*
X6514286Y-15984286D01*
X6514286Y-15936667D01*
X6523809Y-15898571D01*
X6533333Y-15879524D01*
X6542857Y-15870000D01*
X6561905Y-15860476D01*
X6752381Y-15860476D02*
X6771428Y-15860476D01*
X6790476Y-15870000D01*
X6800000Y-15879524D01*
X6809524Y-15898571D01*
X6819048Y-15936667D01*
X6819048Y-15984286D01*
X6809524Y-16022381D01*
X6800000Y-16041428D01*
X6790476Y-16050952D01*
X6771428Y-16060476D01*
X6752381Y-16060476D01*
X6733333Y-16050952D01*
X6723809Y-16041428D01*
X6714286Y-16022381D01*
X6704762Y-15984286D01*
X6704762Y-15936667D01*
X6714286Y-15898571D01*
X6723809Y-15879524D01*
X6733333Y-15870000D01*
X6752381Y-15860476D01*
X6904762Y-16060476D02*
X6904762Y-15927143D01*
X6904762Y-15946190D02*
X6914286Y-15936667D01*
X6933333Y-15927143D01*
X6961905Y-15927143D01*
X6980952Y-15936667D01*
X6990476Y-15955714D01*
X6990476Y-16060476D01*
X6990476Y-15955714D02*
X7000000Y-15936667D01*
X7019048Y-15927143D01*
X7047619Y-15927143D01*
X7066667Y-15936667D01*
X7076190Y-15955714D01*
X7076190Y-16060476D01*
X7171428Y-16060476D02*
X7171428Y-15927143D01*
X7171428Y-15946190D02*
X7180952Y-15936667D01*
X7200000Y-15927143D01*
X7228571Y-15927143D01*
X7247619Y-15936667D01*
X7257143Y-15955714D01*
X7257143Y-16060476D01*
X7257143Y-15955714D02*
X7266667Y-15936667D01*
X7285714Y-15927143D01*
X7314286Y-15927143D01*
X7333333Y-15936667D01*
X7342857Y-15955714D01*
X7342857Y-16060476D01*
X7733333Y-15850952D02*
X7561905Y-16108095D01*
X7990476Y-15860476D02*
X8009524Y-15860476D01*
X8028571Y-15870000D01*
X8038095Y-15879524D01*
X8047619Y-15898571D01*
X8057143Y-15936667D01*
X8057143Y-15984286D01*
X8047619Y-16022381D01*
X8038095Y-16041428D01*
X8028571Y-16050952D01*
X8009524Y-16060476D01*
X7990476Y-16060476D01*
X7971428Y-16050952D01*
X7961905Y-16041428D01*
X7952381Y-16022381D01*
X7942857Y-15984286D01*
X7942857Y-15936667D01*
X7952381Y-15898571D01*
X7961905Y-15879524D01*
X7971428Y-15870000D01*
X7990476Y-15860476D01*
X8142857Y-16041428D02*
X8152381Y-16050952D01*
X8142857Y-16060476D01*
X8133333Y-16050952D01*
X8142857Y-16041428D01*
X8142857Y-16060476D01*
X8276190Y-15860476D02*
X8295238Y-15860476D01*
X8314286Y-15870000D01*
X8323809Y-15879524D01*
X8333333Y-15898571D01*
X8342857Y-15936667D01*
X8342857Y-15984286D01*
X8333333Y-16022381D01*
X8323809Y-16041428D01*
X8314286Y-16050952D01*
X8295238Y-16060476D01*
X8276190Y-16060476D01*
X8257143Y-16050952D01*
X8247619Y-16041428D01*
X8238095Y-16022381D01*
X8228571Y-15984286D01*
X8228571Y-15936667D01*
X8238095Y-15898571D01*
X8247619Y-15879524D01*
X8257143Y-15870000D01*
X8276190Y-15860476D01*
X8514286Y-15927143D02*
X8514286Y-16060476D01*
X8466667Y-15850952D02*
X8419048Y-15993809D01*
X8542857Y-15993809D01*
X8600000Y-15860476D02*
X8723810Y-15860476D01*
X8657143Y-15936667D01*
X8685714Y-15936667D01*
X8704762Y-15946190D01*
X8714286Y-15955714D01*
X8723810Y-15974762D01*
X8723810Y-16022381D01*
X8714286Y-16041428D01*
X8704762Y-16050952D01*
X8685714Y-16060476D01*
X8628571Y-16060476D01*
X8609524Y-16050952D01*
X8600000Y-16041428D01*
X8790476Y-15860476D02*
X8914286Y-15860476D01*
X8847619Y-15936667D01*
X8876190Y-15936667D01*
X8895238Y-15946190D01*
X8904762Y-15955714D01*
X8914286Y-15974762D01*
X8914286Y-16022381D01*
X8904762Y-16041428D01*
X8895238Y-16050952D01*
X8876190Y-16060476D01*
X8819048Y-16060476D01*
X8800000Y-16050952D01*
X8790476Y-16041428D01*
X8990476Y-15860476D02*
X8990476Y-15898571D01*
X9066667Y-15860476D02*
X9066667Y-15898571D01*
X9361905Y-16136667D02*
X9352381Y-16127143D01*
X9333333Y-16098571D01*
X9323810Y-16079524D01*
X9314286Y-16050952D01*
X9304762Y-16003333D01*
X9304762Y-15965238D01*
X9314286Y-15917619D01*
X9323810Y-15889048D01*
X9333333Y-15870000D01*
X9352381Y-15841428D01*
X9361905Y-15831905D01*
X9542857Y-16060476D02*
X9428571Y-16060476D01*
X9485714Y-16060476D02*
X9485714Y-15860476D01*
X9466667Y-15889048D01*
X9447619Y-15908095D01*
X9428571Y-15917619D01*
X9619048Y-15879524D02*
X9628571Y-15870000D01*
X9647619Y-15860476D01*
X9695238Y-15860476D01*
X9714286Y-15870000D01*
X9723810Y-15879524D01*
X9733333Y-15898571D01*
X9733333Y-15917619D01*
X9723810Y-15946190D01*
X9609524Y-16060476D01*
X9733333Y-16060476D01*
X9971429Y-16060476D02*
X9971429Y-15860476D01*
X10057143Y-16060476D02*
X10057143Y-15955714D01*
X10047619Y-15936667D01*
X10028571Y-15927143D01*
X10000000Y-15927143D01*
X9980952Y-15936667D01*
X9971429Y-15946190D01*
X10180952Y-16060476D02*
X10161905Y-16050952D01*
X10152381Y-16041428D01*
X10142857Y-16022381D01*
X10142857Y-15965238D01*
X10152381Y-15946190D01*
X10161905Y-15936667D01*
X10180952Y-15927143D01*
X10209524Y-15927143D01*
X10228571Y-15936667D01*
X10238095Y-15946190D01*
X10247619Y-15965238D01*
X10247619Y-16022381D01*
X10238095Y-16041428D01*
X10228571Y-16050952D01*
X10209524Y-16060476D01*
X10180952Y-16060476D01*
X10361905Y-16060476D02*
X10342857Y-16050952D01*
X10333333Y-16031905D01*
X10333333Y-15860476D01*
X10514286Y-16050952D02*
X10495238Y-16060476D01*
X10457143Y-16060476D01*
X10438095Y-16050952D01*
X10428571Y-16031905D01*
X10428571Y-15955714D01*
X10438095Y-15936667D01*
X10457143Y-15927143D01*
X10495238Y-15927143D01*
X10514286Y-15936667D01*
X10523810Y-15955714D01*
X10523810Y-15974762D01*
X10428571Y-15993809D01*
X10600000Y-16050952D02*
X10619048Y-16060476D01*
X10657143Y-16060476D01*
X10676190Y-16050952D01*
X10685714Y-16031905D01*
X10685714Y-16022381D01*
X10676190Y-16003333D01*
X10657143Y-15993809D01*
X10628571Y-15993809D01*
X10609524Y-15984286D01*
X10600000Y-15965238D01*
X10600000Y-15955714D01*
X10609524Y-15936667D01*
X10628571Y-15927143D01*
X10657143Y-15927143D01*
X10676190Y-15936667D01*
X10752381Y-16136667D02*
X10761905Y-16127143D01*
X10780952Y-16098571D01*
X10790476Y-16079524D01*
X10800000Y-16050952D01*
X10809524Y-16003333D01*
X10809524Y-15965238D01*
X10800000Y-15917619D01*
X10790476Y-15889048D01*
X10780952Y-15870000D01*
X10761905Y-15841428D01*
X10752381Y-15831905D01*
D18*
X5670112Y-16174056D02*
X5790000Y-16293944D01*
X5790000Y-16174056D02*
X5670112Y-16293944D01*
X5730056Y-16174056D02*
X5730056Y-16293944D01*
X5670112Y-16234000D02*
X5790000Y-16234000D01*
D11*
X6152381Y-16324476D02*
X6038095Y-16324476D01*
X6095238Y-16324476D02*
X6095238Y-16124476D01*
X6076190Y-16153048D01*
X6057143Y-16172095D01*
X6038095Y-16181619D01*
X6238095Y-16305428D02*
X6247619Y-16314952D01*
X6238095Y-16324476D01*
X6228571Y-16314952D01*
X6238095Y-16305428D01*
X6238095Y-16324476D01*
X6438095Y-16324476D02*
X6323809Y-16324476D01*
X6380952Y-16324476D02*
X6380952Y-16124476D01*
X6361905Y-16153048D01*
X6342857Y-16172095D01*
X6323809Y-16181619D01*
X6533333Y-16324476D02*
X6571428Y-16324476D01*
X6590476Y-16314952D01*
X6600000Y-16305428D01*
X6619048Y-16276857D01*
X6628571Y-16238762D01*
X6628571Y-16162571D01*
X6619048Y-16143524D01*
X6609524Y-16134000D01*
X6590476Y-16124476D01*
X6552381Y-16124476D01*
X6533333Y-16134000D01*
X6523809Y-16143524D01*
X6514286Y-16162571D01*
X6514286Y-16210190D01*
X6523809Y-16229238D01*
X6533333Y-16238762D01*
X6552381Y-16248286D01*
X6590476Y-16248286D01*
X6609524Y-16238762D01*
X6619048Y-16229238D01*
X6628571Y-16210190D01*
X6723809Y-16324476D02*
X6761905Y-16324476D01*
X6780952Y-16314952D01*
X6790476Y-16305428D01*
X6809524Y-16276857D01*
X6819048Y-16238762D01*
X6819048Y-16162571D01*
X6809524Y-16143524D01*
X6800000Y-16134000D01*
X6780952Y-16124476D01*
X6742857Y-16124476D01*
X6723809Y-16134000D01*
X6714286Y-16143524D01*
X6704762Y-16162571D01*
X6704762Y-16210190D01*
X6714286Y-16229238D01*
X6723809Y-16238762D01*
X6742857Y-16248286D01*
X6780952Y-16248286D01*
X6800000Y-16238762D01*
X6809524Y-16229238D01*
X6819048Y-16210190D01*
X6904762Y-16324476D02*
X6904762Y-16191143D01*
X6904762Y-16210190D02*
X6914286Y-16200667D01*
X6933333Y-16191143D01*
X6961905Y-16191143D01*
X6980952Y-16200667D01*
X6990476Y-16219714D01*
X6990476Y-16324476D01*
X6990476Y-16219714D02*
X7000000Y-16200667D01*
X7019048Y-16191143D01*
X7047619Y-16191143D01*
X7066667Y-16200667D01*
X7076190Y-16219714D01*
X7076190Y-16324476D01*
X7171428Y-16324476D02*
X7171428Y-16191143D01*
X7171428Y-16210190D02*
X7180952Y-16200667D01*
X7200000Y-16191143D01*
X7228571Y-16191143D01*
X7247619Y-16200667D01*
X7257143Y-16219714D01*
X7257143Y-16324476D01*
X7257143Y-16219714D02*
X7266667Y-16200667D01*
X7285714Y-16191143D01*
X7314286Y-16191143D01*
X7333333Y-16200667D01*
X7342857Y-16219714D01*
X7342857Y-16324476D01*
X7733333Y-16114952D02*
X7561905Y-16372095D01*
X7990476Y-16124476D02*
X8009524Y-16124476D01*
X8028571Y-16134000D01*
X8038095Y-16143524D01*
X8047619Y-16162571D01*
X8057143Y-16200667D01*
X8057143Y-16248286D01*
X8047619Y-16286381D01*
X8038095Y-16305428D01*
X8028571Y-16314952D01*
X8009524Y-16324476D01*
X7990476Y-16324476D01*
X7971428Y-16314952D01*
X7961905Y-16305428D01*
X7952381Y-16286381D01*
X7942857Y-16248286D01*
X7942857Y-16200667D01*
X7952381Y-16162571D01*
X7961905Y-16143524D01*
X7971428Y-16134000D01*
X7990476Y-16124476D01*
X8142857Y-16305428D02*
X8152381Y-16314952D01*
X8142857Y-16324476D01*
X8133333Y-16314952D01*
X8142857Y-16305428D01*
X8142857Y-16324476D01*
X8276190Y-16124476D02*
X8295238Y-16124476D01*
X8314286Y-16134000D01*
X8323809Y-16143524D01*
X8333333Y-16162571D01*
X8342857Y-16200667D01*
X8342857Y-16248286D01*
X8333333Y-16286381D01*
X8323809Y-16305428D01*
X8314286Y-16314952D01*
X8295238Y-16324476D01*
X8276190Y-16324476D01*
X8257143Y-16314952D01*
X8247619Y-16305428D01*
X8238095Y-16286381D01*
X8228571Y-16248286D01*
X8228571Y-16200667D01*
X8238095Y-16162571D01*
X8247619Y-16143524D01*
X8257143Y-16134000D01*
X8276190Y-16124476D01*
X8514286Y-16191143D02*
X8514286Y-16324476D01*
X8466667Y-16114952D02*
X8419048Y-16257809D01*
X8542857Y-16257809D01*
X8600000Y-16124476D02*
X8733333Y-16124476D01*
X8647619Y-16324476D01*
X8800000Y-16143524D02*
X8809524Y-16134000D01*
X8828571Y-16124476D01*
X8876190Y-16124476D01*
X8895238Y-16134000D01*
X8904762Y-16143524D01*
X8914286Y-16162571D01*
X8914286Y-16181619D01*
X8904762Y-16210190D01*
X8790476Y-16324476D01*
X8914286Y-16324476D01*
X8990476Y-16124476D02*
X8990476Y-16162571D01*
X9066667Y-16124476D02*
X9066667Y-16162571D01*
X9361905Y-16400667D02*
X9352381Y-16391143D01*
X9333333Y-16362571D01*
X9323810Y-16343524D01*
X9314286Y-16314952D01*
X9304762Y-16267333D01*
X9304762Y-16229238D01*
X9314286Y-16181619D01*
X9323810Y-16153048D01*
X9333333Y-16134000D01*
X9352381Y-16105428D01*
X9361905Y-16095905D01*
X9523810Y-16191143D02*
X9523810Y-16324476D01*
X9476190Y-16114952D02*
X9428571Y-16257809D01*
X9552381Y-16257809D01*
X9780952Y-16324476D02*
X9780952Y-16124476D01*
X9866667Y-16324476D02*
X9866667Y-16219714D01*
X9857143Y-16200667D01*
X9838095Y-16191143D01*
X9809524Y-16191143D01*
X9790476Y-16200667D01*
X9780952Y-16210190D01*
X9990476Y-16324476D02*
X9971429Y-16314952D01*
X9961905Y-16305428D01*
X9952381Y-16286381D01*
X9952381Y-16229238D01*
X9961905Y-16210190D01*
X9971429Y-16200667D01*
X9990476Y-16191143D01*
X10019048Y-16191143D01*
X10038095Y-16200667D01*
X10047619Y-16210190D01*
X10057143Y-16229238D01*
X10057143Y-16286381D01*
X10047619Y-16305428D01*
X10038095Y-16314952D01*
X10019048Y-16324476D01*
X9990476Y-16324476D01*
X10171429Y-16324476D02*
X10152381Y-16314952D01*
X10142857Y-16295905D01*
X10142857Y-16124476D01*
X10323810Y-16314952D02*
X10304762Y-16324476D01*
X10266667Y-16324476D01*
X10247619Y-16314952D01*
X10238095Y-16295905D01*
X10238095Y-16219714D01*
X10247619Y-16200667D01*
X10266667Y-16191143D01*
X10304762Y-16191143D01*
X10323810Y-16200667D01*
X10333333Y-16219714D01*
X10333333Y-16238762D01*
X10238095Y-16257809D01*
X10409524Y-16314952D02*
X10428571Y-16324476D01*
X10466667Y-16324476D01*
X10485714Y-16314952D01*
X10495238Y-16295905D01*
X10495238Y-16286381D01*
X10485714Y-16267333D01*
X10466667Y-16257809D01*
X10438095Y-16257809D01*
X10419048Y-16248286D01*
X10409524Y-16229238D01*
X10409524Y-16219714D01*
X10419048Y-16200667D01*
X10438095Y-16191143D01*
X10466667Y-16191143D01*
X10485714Y-16200667D01*
X10561905Y-16400667D02*
X10571429Y-16391143D01*
X10590476Y-16362571D01*
X10600000Y-16343524D01*
X10609524Y-16314952D01*
X10619048Y-16267333D01*
X10619048Y-16229238D01*
X10609524Y-16181619D01*
X10600000Y-16153048D01*
X10590476Y-16134000D01*
X10571429Y-16105428D01*
X10561905Y-16095905D01*
D19*
X5670000Y-16438000D02*
X5790000Y-16558000D01*
X5790000Y-16438000D02*
X5670000Y-16558000D01*
X5772427Y-16540427D02*
X5772427Y-16455573D01*
X5687573Y-16455573D01*
X5687573Y-16540427D01*
X5772427Y-16540427D01*
D11*
X6152381Y-16588476D02*
X6038095Y-16588476D01*
X6095238Y-16588476D02*
X6095238Y-16388476D01*
X6076190Y-16417048D01*
X6057143Y-16436095D01*
X6038095Y-16445619D01*
X6238095Y-16569428D02*
X6247619Y-16578952D01*
X6238095Y-16588476D01*
X6228571Y-16578952D01*
X6238095Y-16569428D01*
X6238095Y-16588476D01*
X6323809Y-16407524D02*
X6333333Y-16398000D01*
X6352381Y-16388476D01*
X6400000Y-16388476D01*
X6419048Y-16398000D01*
X6428571Y-16407524D01*
X6438095Y-16426571D01*
X6438095Y-16445619D01*
X6428571Y-16474190D01*
X6314286Y-16588476D01*
X6438095Y-16588476D01*
X6561905Y-16388476D02*
X6580952Y-16388476D01*
X6600000Y-16398000D01*
X6609524Y-16407524D01*
X6619048Y-16426571D01*
X6628571Y-16464667D01*
X6628571Y-16512286D01*
X6619048Y-16550381D01*
X6609524Y-16569428D01*
X6600000Y-16578952D01*
X6580952Y-16588476D01*
X6561905Y-16588476D01*
X6542857Y-16578952D01*
X6533333Y-16569428D01*
X6523809Y-16550381D01*
X6514286Y-16512286D01*
X6514286Y-16464667D01*
X6523809Y-16426571D01*
X6533333Y-16407524D01*
X6542857Y-16398000D01*
X6561905Y-16388476D01*
X6752381Y-16388476D02*
X6771428Y-16388476D01*
X6790476Y-16398000D01*
X6800000Y-16407524D01*
X6809524Y-16426571D01*
X6819048Y-16464667D01*
X6819048Y-16512286D01*
X6809524Y-16550381D01*
X6800000Y-16569428D01*
X6790476Y-16578952D01*
X6771428Y-16588476D01*
X6752381Y-16588476D01*
X6733333Y-16578952D01*
X6723809Y-16569428D01*
X6714286Y-16550381D01*
X6704762Y-16512286D01*
X6704762Y-16464667D01*
X6714286Y-16426571D01*
X6723809Y-16407524D01*
X6733333Y-16398000D01*
X6752381Y-16388476D01*
X6904762Y-16588476D02*
X6904762Y-16455143D01*
X6904762Y-16474190D02*
X6914286Y-16464667D01*
X6933333Y-16455143D01*
X6961905Y-16455143D01*
X6980952Y-16464667D01*
X6990476Y-16483714D01*
X6990476Y-16588476D01*
X6990476Y-16483714D02*
X7000000Y-16464667D01*
X7019048Y-16455143D01*
X7047619Y-16455143D01*
X7066667Y-16464667D01*
X7076190Y-16483714D01*
X7076190Y-16588476D01*
X7171428Y-16588476D02*
X7171428Y-16455143D01*
X7171428Y-16474190D02*
X7180952Y-16464667D01*
X7200000Y-16455143D01*
X7228571Y-16455143D01*
X7247619Y-16464667D01*
X7257143Y-16483714D01*
X7257143Y-16588476D01*
X7257143Y-16483714D02*
X7266667Y-16464667D01*
X7285714Y-16455143D01*
X7314286Y-16455143D01*
X7333333Y-16464667D01*
X7342857Y-16483714D01*
X7342857Y-16588476D01*
X7733333Y-16378952D02*
X7561905Y-16636095D01*
X7990476Y-16388476D02*
X8009524Y-16388476D01*
X8028571Y-16398000D01*
X8038095Y-16407524D01*
X8047619Y-16426571D01*
X8057143Y-16464667D01*
X8057143Y-16512286D01*
X8047619Y-16550381D01*
X8038095Y-16569428D01*
X8028571Y-16578952D01*
X8009524Y-16588476D01*
X7990476Y-16588476D01*
X7971428Y-16578952D01*
X7961905Y-16569428D01*
X7952381Y-16550381D01*
X7942857Y-16512286D01*
X7942857Y-16464667D01*
X7952381Y-16426571D01*
X7961905Y-16407524D01*
X7971428Y-16398000D01*
X7990476Y-16388476D01*
X8142857Y-16569428D02*
X8152381Y-16578952D01*
X8142857Y-16588476D01*
X8133333Y-16578952D01*
X8142857Y-16569428D01*
X8142857Y-16588476D01*
X8276190Y-16388476D02*
X8295238Y-16388476D01*
X8314286Y-16398000D01*
X8323809Y-16407524D01*
X8333333Y-16426571D01*
X8342857Y-16464667D01*
X8342857Y-16512286D01*
X8333333Y-16550381D01*
X8323809Y-16569428D01*
X8314286Y-16578952D01*
X8295238Y-16588476D01*
X8276190Y-16588476D01*
X8257143Y-16578952D01*
X8247619Y-16569428D01*
X8238095Y-16550381D01*
X8228571Y-16512286D01*
X8228571Y-16464667D01*
X8238095Y-16426571D01*
X8247619Y-16407524D01*
X8257143Y-16398000D01*
X8276190Y-16388476D01*
X8514286Y-16455143D02*
X8514286Y-16588476D01*
X8466667Y-16378952D02*
X8419048Y-16521809D01*
X8542857Y-16521809D01*
X8600000Y-16388476D02*
X8733333Y-16388476D01*
X8647619Y-16588476D01*
X8800000Y-16407524D02*
X8809524Y-16398000D01*
X8828571Y-16388476D01*
X8876190Y-16388476D01*
X8895238Y-16398000D01*
X8904762Y-16407524D01*
X8914286Y-16426571D01*
X8914286Y-16445619D01*
X8904762Y-16474190D01*
X8790476Y-16588476D01*
X8914286Y-16588476D01*
X8990476Y-16388476D02*
X8990476Y-16426571D01*
X9066667Y-16388476D02*
X9066667Y-16426571D01*
X9361905Y-16664667D02*
X9352381Y-16655143D01*
X9333333Y-16626571D01*
X9323810Y-16607524D01*
X9314286Y-16578952D01*
X9304762Y-16531333D01*
X9304762Y-16493238D01*
X9314286Y-16445619D01*
X9323810Y-16417048D01*
X9333333Y-16398000D01*
X9352381Y-16369428D01*
X9361905Y-16359905D01*
X9466667Y-16474190D02*
X9447619Y-16464667D01*
X9438095Y-16455143D01*
X9428571Y-16436095D01*
X9428571Y-16426571D01*
X9438095Y-16407524D01*
X9447619Y-16398000D01*
X9466667Y-16388476D01*
X9504762Y-16388476D01*
X9523810Y-16398000D01*
X9533333Y-16407524D01*
X9542857Y-16426571D01*
X9542857Y-16436095D01*
X9533333Y-16455143D01*
X9523810Y-16464667D01*
X9504762Y-16474190D01*
X9466667Y-16474190D01*
X9447619Y-16483714D01*
X9438095Y-16493238D01*
X9428571Y-16512286D01*
X9428571Y-16550381D01*
X9438095Y-16569428D01*
X9447619Y-16578952D01*
X9466667Y-16588476D01*
X9504762Y-16588476D01*
X9523810Y-16578952D01*
X9533333Y-16569428D01*
X9542857Y-16550381D01*
X9542857Y-16512286D01*
X9533333Y-16493238D01*
X9523810Y-16483714D01*
X9504762Y-16474190D01*
X9780952Y-16588476D02*
X9780952Y-16388476D01*
X9866667Y-16588476D02*
X9866667Y-16483714D01*
X9857143Y-16464667D01*
X9838095Y-16455143D01*
X9809524Y-16455143D01*
X9790476Y-16464667D01*
X9780952Y-16474190D01*
X9990476Y-16588476D02*
X9971429Y-16578952D01*
X9961905Y-16569428D01*
X9952381Y-16550381D01*
X9952381Y-16493238D01*
X9961905Y-16474190D01*
X9971429Y-16464667D01*
X9990476Y-16455143D01*
X10019048Y-16455143D01*
X10038095Y-16464667D01*
X10047619Y-16474190D01*
X10057143Y-16493238D01*
X10057143Y-16550381D01*
X10047619Y-16569428D01*
X10038095Y-16578952D01*
X10019048Y-16588476D01*
X9990476Y-16588476D01*
X10171429Y-16588476D02*
X10152381Y-16578952D01*
X10142857Y-16559905D01*
X10142857Y-16388476D01*
X10323810Y-16578952D02*
X10304762Y-16588476D01*
X10266667Y-16588476D01*
X10247619Y-16578952D01*
X10238095Y-16559905D01*
X10238095Y-16483714D01*
X10247619Y-16464667D01*
X10266667Y-16455143D01*
X10304762Y-16455143D01*
X10323810Y-16464667D01*
X10333333Y-16483714D01*
X10333333Y-16502762D01*
X10238095Y-16521809D01*
X10409524Y-16578952D02*
X10428571Y-16588476D01*
X10466667Y-16588476D01*
X10485714Y-16578952D01*
X10495238Y-16559905D01*
X10495238Y-16550381D01*
X10485714Y-16531333D01*
X10466667Y-16521809D01*
X10438095Y-16521809D01*
X10419048Y-16512286D01*
X10409524Y-16493238D01*
X10409524Y-16483714D01*
X10419048Y-16464667D01*
X10438095Y-16455143D01*
X10466667Y-16455143D01*
X10485714Y-16464667D01*
X10561905Y-16664667D02*
X10571429Y-16655143D01*
X10590476Y-16626571D01*
X10600000Y-16607524D01*
X10609524Y-16578952D01*
X10619048Y-16531333D01*
X10619048Y-16493238D01*
X10609524Y-16445619D01*
X10600000Y-16417048D01*
X10590476Y-16398000D01*
X10571429Y-16369428D01*
X10561905Y-16359905D01*
D20*
X5650000Y-16692000D02*
X5790000Y-16832000D01*
X5790000Y-16692000D02*
X5650000Y-16832000D01*
X5720000Y-16832000D02*
X5790000Y-16762000D01*
X5720000Y-16692000D01*
X5650000Y-16762000D01*
X5720000Y-16832000D01*
D11*
X6152381Y-16852476D02*
X6038095Y-16852476D01*
X6095238Y-16852476D02*
X6095238Y-16652476D01*
X6076190Y-16681048D01*
X6057143Y-16700095D01*
X6038095Y-16709619D01*
X6238095Y-16833429D02*
X6247619Y-16842952D01*
X6238095Y-16852476D01*
X6228571Y-16842952D01*
X6238095Y-16833429D01*
X6238095Y-16852476D01*
X6419048Y-16719143D02*
X6419048Y-16852476D01*
X6371428Y-16642952D02*
X6323809Y-16785810D01*
X6447619Y-16785810D01*
X6561905Y-16652476D02*
X6580952Y-16652476D01*
X6600000Y-16662000D01*
X6609524Y-16671524D01*
X6619048Y-16690571D01*
X6628571Y-16728667D01*
X6628571Y-16776286D01*
X6619048Y-16814381D01*
X6609524Y-16833429D01*
X6600000Y-16842952D01*
X6580952Y-16852476D01*
X6561905Y-16852476D01*
X6542857Y-16842952D01*
X6533333Y-16833429D01*
X6523809Y-16814381D01*
X6514286Y-16776286D01*
X6514286Y-16728667D01*
X6523809Y-16690571D01*
X6533333Y-16671524D01*
X6542857Y-16662000D01*
X6561905Y-16652476D01*
X6752381Y-16652476D02*
X6771428Y-16652476D01*
X6790476Y-16662000D01*
X6800000Y-16671524D01*
X6809524Y-16690571D01*
X6819048Y-16728667D01*
X6819048Y-16776286D01*
X6809524Y-16814381D01*
X6800000Y-16833429D01*
X6790476Y-16842952D01*
X6771428Y-16852476D01*
X6752381Y-16852476D01*
X6733333Y-16842952D01*
X6723809Y-16833429D01*
X6714286Y-16814381D01*
X6704762Y-16776286D01*
X6704762Y-16728667D01*
X6714286Y-16690571D01*
X6723809Y-16671524D01*
X6733333Y-16662000D01*
X6752381Y-16652476D01*
X6904762Y-16852476D02*
X6904762Y-16719143D01*
X6904762Y-16738190D02*
X6914286Y-16728667D01*
X6933333Y-16719143D01*
X6961905Y-16719143D01*
X6980952Y-16728667D01*
X6990476Y-16747714D01*
X6990476Y-16852476D01*
X6990476Y-16747714D02*
X7000000Y-16728667D01*
X7019048Y-16719143D01*
X7047619Y-16719143D01*
X7066667Y-16728667D01*
X7076190Y-16747714D01*
X7076190Y-16852476D01*
X7171428Y-16852476D02*
X7171428Y-16719143D01*
X7171428Y-16738190D02*
X7180952Y-16728667D01*
X7200000Y-16719143D01*
X7228571Y-16719143D01*
X7247619Y-16728667D01*
X7257143Y-16747714D01*
X7257143Y-16852476D01*
X7257143Y-16747714D02*
X7266667Y-16728667D01*
X7285714Y-16719143D01*
X7314286Y-16719143D01*
X7333333Y-16728667D01*
X7342857Y-16747714D01*
X7342857Y-16852476D01*
X7733333Y-16642952D02*
X7561905Y-16900095D01*
X7990476Y-16652476D02*
X8009524Y-16652476D01*
X8028571Y-16662000D01*
X8038095Y-16671524D01*
X8047619Y-16690571D01*
X8057143Y-16728667D01*
X8057143Y-16776286D01*
X8047619Y-16814381D01*
X8038095Y-16833429D01*
X8028571Y-16842952D01*
X8009524Y-16852476D01*
X7990476Y-16852476D01*
X7971428Y-16842952D01*
X7961905Y-16833429D01*
X7952381Y-16814381D01*
X7942857Y-16776286D01*
X7942857Y-16728667D01*
X7952381Y-16690571D01*
X7961905Y-16671524D01*
X7971428Y-16662000D01*
X7990476Y-16652476D01*
X8142857Y-16833429D02*
X8152381Y-16842952D01*
X8142857Y-16852476D01*
X8133333Y-16842952D01*
X8142857Y-16833429D01*
X8142857Y-16852476D01*
X8276190Y-16652476D02*
X8295238Y-16652476D01*
X8314286Y-16662000D01*
X8323809Y-16671524D01*
X8333333Y-16690571D01*
X8342857Y-16728667D01*
X8342857Y-16776286D01*
X8333333Y-16814381D01*
X8323809Y-16833429D01*
X8314286Y-16842952D01*
X8295238Y-16852476D01*
X8276190Y-16852476D01*
X8257143Y-16842952D01*
X8247619Y-16833429D01*
X8238095Y-16814381D01*
X8228571Y-16776286D01*
X8228571Y-16728667D01*
X8238095Y-16690571D01*
X8247619Y-16671524D01*
X8257143Y-16662000D01*
X8276190Y-16652476D01*
X8523810Y-16652476D02*
X8428571Y-16652476D01*
X8419048Y-16747714D01*
X8428571Y-16738190D01*
X8447619Y-16728667D01*
X8495238Y-16728667D01*
X8514286Y-16738190D01*
X8523810Y-16747714D01*
X8533333Y-16766762D01*
X8533333Y-16814381D01*
X8523810Y-16833429D01*
X8514286Y-16842952D01*
X8495238Y-16852476D01*
X8447619Y-16852476D01*
X8428571Y-16842952D01*
X8419048Y-16833429D01*
X8714286Y-16652476D02*
X8619048Y-16652476D01*
X8609524Y-16747714D01*
X8619048Y-16738190D01*
X8638095Y-16728667D01*
X8685714Y-16728667D01*
X8704762Y-16738190D01*
X8714286Y-16747714D01*
X8723810Y-16766762D01*
X8723810Y-16814381D01*
X8714286Y-16833429D01*
X8704762Y-16842952D01*
X8685714Y-16852476D01*
X8638095Y-16852476D01*
X8619048Y-16842952D01*
X8609524Y-16833429D01*
X8914286Y-16852476D02*
X8800000Y-16852476D01*
X8857143Y-16852476D02*
X8857143Y-16652476D01*
X8838095Y-16681048D01*
X8819048Y-16700095D01*
X8800000Y-16709619D01*
X8990476Y-16652476D02*
X8990476Y-16690571D01*
X9066667Y-16652476D02*
X9066667Y-16690571D01*
X9361905Y-16928667D02*
X9352381Y-16919143D01*
X9333333Y-16890571D01*
X9323810Y-16871524D01*
X9314286Y-16842952D01*
X9304762Y-16795333D01*
X9304762Y-16757238D01*
X9314286Y-16709619D01*
X9323810Y-16681048D01*
X9333333Y-16662000D01*
X9352381Y-16633428D01*
X9361905Y-16623905D01*
X9428571Y-16671524D02*
X9438095Y-16662000D01*
X9457143Y-16652476D01*
X9504762Y-16652476D01*
X9523810Y-16662000D01*
X9533333Y-16671524D01*
X9542857Y-16690571D01*
X9542857Y-16709619D01*
X9533333Y-16738190D01*
X9419048Y-16852476D01*
X9542857Y-16852476D01*
X9666667Y-16652476D02*
X9685714Y-16652476D01*
X9704762Y-16662000D01*
X9714286Y-16671524D01*
X9723810Y-16690571D01*
X9733333Y-16728667D01*
X9733333Y-16776286D01*
X9723810Y-16814381D01*
X9714286Y-16833429D01*
X9704762Y-16842952D01*
X9685714Y-16852476D01*
X9666667Y-16852476D01*
X9647619Y-16842952D01*
X9638095Y-16833429D01*
X9628571Y-16814381D01*
X9619048Y-16776286D01*
X9619048Y-16728667D01*
X9628571Y-16690571D01*
X9638095Y-16671524D01*
X9647619Y-16662000D01*
X9666667Y-16652476D01*
X9971429Y-16852476D02*
X9971429Y-16652476D01*
X10057143Y-16852476D02*
X10057143Y-16747714D01*
X10047619Y-16728667D01*
X10028571Y-16719143D01*
X10000000Y-16719143D01*
X9980952Y-16728667D01*
X9971429Y-16738190D01*
X10180952Y-16852476D02*
X10161905Y-16842952D01*
X10152381Y-16833429D01*
X10142857Y-16814381D01*
X10142857Y-16757238D01*
X10152381Y-16738190D01*
X10161905Y-16728667D01*
X10180952Y-16719143D01*
X10209524Y-16719143D01*
X10228571Y-16728667D01*
X10238095Y-16738190D01*
X10247619Y-16757238D01*
X10247619Y-16814381D01*
X10238095Y-16833429D01*
X10228571Y-16842952D01*
X10209524Y-16852476D01*
X10180952Y-16852476D01*
X10361905Y-16852476D02*
X10342857Y-16842952D01*
X10333333Y-16823905D01*
X10333333Y-16652476D01*
X10514286Y-16842952D02*
X10495238Y-16852476D01*
X10457143Y-16852476D01*
X10438095Y-16842952D01*
X10428571Y-16823905D01*
X10428571Y-16747714D01*
X10438095Y-16728667D01*
X10457143Y-16719143D01*
X10495238Y-16719143D01*
X10514286Y-16728667D01*
X10523810Y-16747714D01*
X10523810Y-16766762D01*
X10428571Y-16785810D01*
X10600000Y-16842952D02*
X10619048Y-16852476D01*
X10657143Y-16852476D01*
X10676190Y-16842952D01*
X10685714Y-16823905D01*
X10685714Y-16814381D01*
X10676190Y-16795333D01*
X10657143Y-16785810D01*
X10628571Y-16785810D01*
X10609524Y-16776286D01*
X10600000Y-16757238D01*
X10600000Y-16747714D01*
X10609524Y-16728667D01*
X10628571Y-16719143D01*
X10657143Y-16719143D01*
X10676190Y-16728667D01*
X10752381Y-16928667D02*
X10761905Y-16919143D01*
X10780952Y-16890571D01*
X10790476Y-16871524D01*
X10800000Y-16842952D01*
X10809524Y-16795333D01*
X10809524Y-16757238D01*
X10800000Y-16709619D01*
X10790476Y-16681048D01*
X10780952Y-16662000D01*
X10761905Y-16633428D01*
X10752381Y-16623905D01*
M02*
