M48
; DRILL file {KiCad (6.0.4)} date Fri Jul 29 23:36:15 2022
; FORMAT={-:-/ absolute / metric / decimal}
; #@! TF.CreationDate,2022-07-29T23:36:15-06:00
; #@! TF.GenerationSoftware,Kicad,Pcbnew,(6.0.4)
; #@! TF.FileFunction,Plated,1,2,PTH
FMAT,2
METRIC
; #@! TA.AperFunction,Plated,PTH,ViaDrill
T1C0.400
; #@! TA.AperFunction,Plated,PTH,ComponentDrill
T2C0.800
; #@! TA.AperFunction,Plated,PTH,ComponentDrill
T3C0.900
; #@! TA.AperFunction,Plated,PTH,ComponentDrill
T4C1.000
; #@! TA.AperFunction,Plated,PTH,ComponentDrill
T5C1.040
; #@! TA.AperFunction,Plated,PTH,ComponentDrill
T6C1.100
; #@! TA.AperFunction,Plated,PTH,ComponentDrill
T7C1.199
; #@! TA.AperFunction,Plated,PTH,ComponentDrill
T8C1.200
; #@! TA.AperFunction,Plated,PTH,ComponentDrill
T9C1.400
%
G90
G05
T1
X101.6Y-116.84
X101.6Y-120.015
X102.87Y-85.09
X139.098Y-82.55
X141.638Y-85.09
T2
X79.6Y-66.13
X79.6Y-76.29
X79.6Y-83.91
X79.6Y-94.07
X79.6Y-101.69
X79.6Y-111.85
X79.6Y-119.47
X79.6Y-129.63
X87.22Y-72.48
X87.22Y-76.29
X87.22Y-91.53
X87.22Y-95.34
X87.22Y-108.04
X87.22Y-111.85
X87.22Y-127.09
X87.22Y-130.9
X91.03Y-81.41
X91.03Y-86.41
X91.03Y-116.97
X91.03Y-121.97
X97.38Y-72.48
X97.38Y-76.29
X97.38Y-82.64
X97.38Y-85.14
X97.38Y-91.53
X97.38Y-95.34
X97.38Y-108.04
X97.38Y-111.85
X97.38Y-118.2
X97.38Y-120.7
X97.38Y-127.09
X97.38Y-130.9
X104.99Y-82.63
X104.99Y-85.17
X104.99Y-87.71
X104.99Y-90.25
X104.99Y-99.06
X104.99Y-101.6
X104.99Y-104.14
X104.99Y-106.68
X105.0Y-111.89
X105.0Y-116.89
X106.27Y-95.34
X106.31Y-78.83
X111.27Y-95.34
X111.31Y-78.83
X111.35Y-113.12
X111.35Y-115.62
X112.61Y-82.63
X112.61Y-85.17
X112.61Y-87.71
X112.61Y-90.25
X112.61Y-99.06
X112.61Y-101.6
X112.61Y-104.14
X112.61Y-106.68
X116.43Y-81.29
X116.43Y-85.18
X116.43Y-88.99
X116.43Y-92.72
X116.43Y-96.53
X116.43Y-100.42
X116.43Y-104.15
X116.43Y-108.04
X118.97Y-73.79
X118.97Y-76.29
X118.97Y-122.05
X118.97Y-127.05
X125.32Y-72.52
X125.32Y-77.52
X125.32Y-123.32
X125.32Y-125.82
X126.59Y-81.29
X126.59Y-85.18
X126.59Y-88.99
X126.59Y-92.72
X126.59Y-96.53
X126.59Y-100.42
X126.59Y-104.15
X126.59Y-108.04
T3
X84.68Y-64.86
X84.68Y-67.4
X84.68Y-82.64
X84.68Y-85.18
X84.68Y-100.42
X84.68Y-102.96
X84.68Y-118.2
X84.68Y-120.74
T4
X103.73Y-69.94
X106.27Y-69.94
X108.81Y-69.94
X111.35Y-69.94
X120.23Y-117.61
X122.77Y-117.61
X125.31Y-117.61
X163.42Y-125.82
X165.96Y-125.82
X167.156Y-80.263
X167.216Y-110.351
X168.5Y-125.82
X169.696Y-80.263
X169.756Y-110.351
X172.236Y-80.263
X172.296Y-110.351
X174.776Y-80.263
X174.836Y-110.351
X177.316Y-80.263
X177.376Y-110.351
X179.856Y-80.263
X179.916Y-110.351
X182.396Y-80.263
X182.456Y-110.351
T5
X131.035Y-77.485
X131.035Y-80.025
X131.035Y-82.565
X131.035Y-85.105
X131.035Y-87.645
X131.035Y-90.185
X131.035Y-92.725
X131.035Y-95.265
X131.035Y-97.805
X131.035Y-100.345
X131.035Y-102.885
X131.035Y-105.425
X131.035Y-107.965
X131.035Y-110.505
X131.035Y-113.045
X131.035Y-115.585
X131.035Y-118.125
X131.035Y-120.665
X131.035Y-123.205
X156.435Y-77.485
X156.435Y-80.025
X156.435Y-82.565
X156.435Y-85.105
X156.435Y-87.645
X156.435Y-90.185
X156.435Y-92.725
X156.435Y-95.265
X156.435Y-97.805
X156.435Y-100.345
X156.435Y-102.885
X156.435Y-105.425
X156.435Y-107.965
X156.435Y-110.505
X156.435Y-113.045
X156.435Y-115.585
X156.435Y-118.125
X156.435Y-120.665
X156.435Y-123.205
T6
X84.355Y-125.82
X84.355Y-128.36
X84.355Y-130.9
X84.68Y-72.48
X84.68Y-75.02
X84.68Y-77.56
X84.68Y-90.26
X84.68Y-92.8
X84.68Y-95.34
X84.68Y-108.04
X84.68Y-110.58
X84.68Y-113.12
T7
X174.092Y-118.151
X174.092Y-123.149
X186.588Y-118.151
X186.588Y-123.149
T8
X75.79Y-64.86
X75.79Y-77.56
X75.79Y-82.64
X75.79Y-95.34
X75.79Y-100.42
X75.79Y-113.12
X75.79Y-118.2
X75.79Y-130.9
T9
X63.09Y-66.13
X63.09Y-71.21
X63.09Y-83.91
X63.09Y-88.99
X63.09Y-101.77
X63.09Y-106.85
X63.09Y-119.55
X63.09Y-124.63
X70.71Y-66.13
X70.71Y-71.21
X70.71Y-83.91
X70.71Y-88.99
X70.71Y-101.77
X70.71Y-106.85
X70.71Y-119.55
X70.71Y-124.63
X105.08Y-121.107
X105.08Y-128.727
X110.16Y-121.107
X110.16Y-128.727
T0
M30
